<?xml version="1.0" encoding="utf-8" standalone="no"?>
<!DOCTYPE svg PUBLIC "-//W3C//DTD SVG 1.1//EN"
  "http://www.w3.org/Graphics/SVG/1.1/DTD/svg11.dtd">
<!-- Created with matplotlib (https://matplotlib.org/) -->
<svg height="707.44825pt" version="1.1" viewBox="0 0 683.887625 707.44825" width="683.887625pt" xmlns="http://www.w3.org/2000/svg" xmlns:xlink="http://www.w3.org/1999/xlink">
 <metadata>
  <rdf:RDF xmlns:cc="http://creativecommons.org/ns#" xmlns:dc="http://purl.org/dc/elements/1.1/" xmlns:rdf="http://www.w3.org/1999/02/22-rdf-syntax-ns#">
   <cc:Work>
    <dc:type rdf:resource="http://purl.org/dc/dcmitype/StillImage"/>
    <dc:date>2021-06-09T13:03:56.992572</dc:date>
    <dc:format>image/svg+xml</dc:format>
    <dc:creator>
     <cc:Agent>
      <dc:title>Matplotlib v3.3.3, https://matplotlib.org/</dc:title>
     </cc:Agent>
    </dc:creator>
   </cc:Work>
  </rdf:RDF>
 </metadata>
 <defs>
  <style type="text/css">*{stroke-linecap:butt;stroke-linejoin:round;}</style>
 </defs>
 <g id="figure_1">
  <g id="patch_1">
   <path d="M 0 707.44825 
L 683.887625 707.44825 
L 683.887625 0 
L 0 0 
z
" style="fill:none;"/>
  </g>
  <g id="axes_1">
   <g id="patch_2">
    <path d="M 121.952625 605.02 
L 611.192625 605.02 
L 611.192625 115.78 
L 121.952625 115.78 
z
" style="fill:none;"/>
   </g>
   <g id="matplotlib.axis_1">
    <g id="xtick_1">
     <g id="line2d_1"/>
     <g id="text_1">
      <!-- 10% -->
      <g style="fill:#002f6c;" transform="translate(144.142744 634.138125)scale(0.12 -0.12)">
       <defs>
        <path d="M 12.40625 8.296875 
L 28.515625 8.296875 
L 28.515625 63.921875 
L 10.984375 60.40625 
L 10.984375 69.390625 
L 28.421875 72.90625 
L 38.28125 72.90625 
L 38.28125 8.296875 
L 54.390625 8.296875 
L 54.390625 0 
L 12.40625 0 
z
" id="DejaVuSans-49"/>
        <path d="M 31.78125 66.40625 
Q 24.171875 66.40625 20.328125 58.90625 
Q 16.5 51.421875 16.5 36.375 
Q 16.5 21.390625 20.328125 13.890625 
Q 24.171875 6.390625 31.78125 6.390625 
Q 39.453125 6.390625 43.28125 13.890625 
Q 47.125 21.390625 47.125 36.375 
Q 47.125 51.421875 43.28125 58.90625 
Q 39.453125 66.40625 31.78125 66.40625 
z
M 31.78125 74.21875 
Q 44.046875 74.21875 50.515625 64.515625 
Q 56.984375 54.828125 56.984375 36.375 
Q 56.984375 17.96875 50.515625 8.265625 
Q 44.046875 -1.421875 31.78125 -1.421875 
Q 19.53125 -1.421875 13.0625 8.265625 
Q 6.59375 17.96875 6.59375 36.375 
Q 6.59375 54.828125 13.0625 64.515625 
Q 19.53125 74.21875 31.78125 74.21875 
z
" id="DejaVuSans-48"/>
        <path d="M 72.703125 32.078125 
Q 68.453125 32.078125 66.03125 28.46875 
Q 63.625 24.859375 63.625 18.40625 
Q 63.625 12.0625 66.03125 8.421875 
Q 68.453125 4.78125 72.703125 4.78125 
Q 76.859375 4.78125 79.265625 8.421875 
Q 81.6875 12.0625 81.6875 18.40625 
Q 81.6875 24.8125 79.265625 28.4375 
Q 76.859375 32.078125 72.703125 32.078125 
z
M 72.703125 38.28125 
Q 80.421875 38.28125 84.953125 32.90625 
Q 89.5 27.546875 89.5 18.40625 
Q 89.5 9.28125 84.9375 3.921875 
Q 80.375 -1.421875 72.703125 -1.421875 
Q 64.890625 -1.421875 60.34375 3.921875 
Q 55.8125 9.28125 55.8125 18.40625 
Q 55.8125 27.59375 60.375 32.9375 
Q 64.9375 38.28125 72.703125 38.28125 
z
M 22.3125 68.015625 
Q 18.109375 68.015625 15.6875 64.375 
Q 13.28125 60.75 13.28125 54.390625 
Q 13.28125 47.953125 15.671875 44.328125 
Q 18.0625 40.71875 22.3125 40.71875 
Q 26.5625 40.71875 28.96875 44.328125 
Q 31.390625 47.953125 31.390625 54.390625 
Q 31.390625 60.6875 28.953125 64.34375 
Q 26.515625 68.015625 22.3125 68.015625 
z
M 66.40625 74.21875 
L 74.21875 74.21875 
L 28.609375 -1.421875 
L 20.796875 -1.421875 
z
M 22.3125 74.21875 
Q 30.03125 74.21875 34.609375 68.875 
Q 39.203125 63.53125 39.203125 54.390625 
Q 39.203125 45.171875 34.640625 39.84375 
Q 30.078125 34.515625 22.3125 34.515625 
Q 14.546875 34.515625 10.03125 39.859375 
Q 5.515625 45.21875 5.515625 54.390625 
Q 5.515625 63.484375 10.046875 68.84375 
Q 14.59375 74.21875 22.3125 74.21875 
z
" id="DejaVuSans-37"/>
       </defs>
       <use xlink:href="#DejaVuSans-49"/>
       <use x="63.623047" xlink:href="#DejaVuSans-48"/>
       <use x="127.246094" xlink:href="#DejaVuSans-37"/>
      </g>
     </g>
    </g>
    <g id="xtick_2">
     <g id="line2d_2"/>
     <g id="text_2">
      <!-- 15% -->
      <g style="fill:#002f6c;" transform="translate(243.711289 634.138125)scale(0.12 -0.12)">
       <defs>
        <path d="M 10.796875 72.90625 
L 49.515625 72.90625 
L 49.515625 64.59375 
L 19.828125 64.59375 
L 19.828125 46.734375 
Q 21.96875 47.46875 24.109375 47.828125 
Q 26.265625 48.1875 28.421875 48.1875 
Q 40.625 48.1875 47.75 41.5 
Q 54.890625 34.8125 54.890625 23.390625 
Q 54.890625 11.625 47.5625 5.09375 
Q 40.234375 -1.421875 26.90625 -1.421875 
Q 22.3125 -1.421875 17.546875 -0.640625 
Q 12.796875 0.140625 7.71875 1.703125 
L 7.71875 11.625 
Q 12.109375 9.234375 16.796875 8.0625 
Q 21.484375 6.890625 26.703125 6.890625 
Q 35.15625 6.890625 40.078125 11.328125 
Q 45.015625 15.765625 45.015625 23.390625 
Q 45.015625 31 40.078125 35.4375 
Q 35.15625 39.890625 26.703125 39.890625 
Q 22.75 39.890625 18.8125 39.015625 
Q 14.890625 38.140625 10.796875 36.28125 
z
" id="DejaVuSans-53"/>
       </defs>
       <use xlink:href="#DejaVuSans-49"/>
       <use x="63.623047" xlink:href="#DejaVuSans-53"/>
       <use x="127.246094" xlink:href="#DejaVuSans-37"/>
      </g>
     </g>
    </g>
    <g id="xtick_3">
     <g id="line2d_3"/>
     <g id="text_3">
      <!-- 20% -->
      <g style="fill:#002f6c;" transform="translate(343.279833 634.138125)scale(0.12 -0.12)">
       <defs>
        <path d="M 19.1875 8.296875 
L 53.609375 8.296875 
L 53.609375 0 
L 7.328125 0 
L 7.328125 8.296875 
Q 12.9375 14.109375 22.625 23.890625 
Q 32.328125 33.6875 34.8125 36.53125 
Q 39.546875 41.84375 41.421875 45.53125 
Q 43.3125 49.21875 43.3125 52.78125 
Q 43.3125 58.59375 39.234375 62.25 
Q 35.15625 65.921875 28.609375 65.921875 
Q 23.96875 65.921875 18.8125 64.3125 
Q 13.671875 62.703125 7.8125 59.421875 
L 7.8125 69.390625 
Q 13.765625 71.78125 18.9375 73 
Q 24.125 74.21875 28.421875 74.21875 
Q 39.75 74.21875 46.484375 68.546875 
Q 53.21875 62.890625 53.21875 53.421875 
Q 53.21875 48.921875 51.53125 44.890625 
Q 49.859375 40.875 45.40625 35.40625 
Q 44.1875 33.984375 37.640625 27.21875 
Q 31.109375 20.453125 19.1875 8.296875 
z
" id="DejaVuSans-50"/>
       </defs>
       <use xlink:href="#DejaVuSans-50"/>
       <use x="63.623047" xlink:href="#DejaVuSans-48"/>
       <use x="127.246094" xlink:href="#DejaVuSans-37"/>
      </g>
     </g>
    </g>
    <g id="xtick_4">
     <g id="line2d_4"/>
     <g id="text_4">
      <!-- 25% -->
      <g style="fill:#002f6c;" transform="translate(442.848378 634.138125)scale(0.12 -0.12)">
       <use xlink:href="#DejaVuSans-50"/>
       <use x="63.623047" xlink:href="#DejaVuSans-53"/>
       <use x="127.246094" xlink:href="#DejaVuSans-37"/>
      </g>
     </g>
    </g>
    <g id="xtick_5">
     <g id="line2d_5"/>
     <g id="text_5">
      <!-- 30% -->
      <g style="fill:#002f6c;" transform="translate(542.416922 634.138125)scale(0.12 -0.12)">
       <defs>
        <path d="M 40.578125 39.3125 
Q 47.65625 37.796875 51.625 33 
Q 55.609375 28.21875 55.609375 21.1875 
Q 55.609375 10.40625 48.1875 4.484375 
Q 40.765625 -1.421875 27.09375 -1.421875 
Q 22.515625 -1.421875 17.65625 -0.515625 
Q 12.796875 0.390625 7.625 2.203125 
L 7.625 11.71875 
Q 11.71875 9.328125 16.59375 8.109375 
Q 21.484375 6.890625 26.8125 6.890625 
Q 36.078125 6.890625 40.9375 10.546875 
Q 45.796875 14.203125 45.796875 21.1875 
Q 45.796875 27.640625 41.28125 31.265625 
Q 36.765625 34.90625 28.71875 34.90625 
L 20.21875 34.90625 
L 20.21875 43.015625 
L 29.109375 43.015625 
Q 36.375 43.015625 40.234375 45.921875 
Q 44.09375 48.828125 44.09375 54.296875 
Q 44.09375 59.90625 40.109375 62.90625 
Q 36.140625 65.921875 28.71875 65.921875 
Q 24.65625 65.921875 20.015625 65.03125 
Q 15.375 64.15625 9.8125 62.3125 
L 9.8125 71.09375 
Q 15.4375 72.65625 20.34375 73.4375 
Q 25.25 74.21875 29.59375 74.21875 
Q 40.828125 74.21875 47.359375 69.109375 
Q 53.90625 64.015625 53.90625 55.328125 
Q 53.90625 49.265625 50.4375 45.09375 
Q 46.96875 40.921875 40.578125 39.3125 
z
" id="DejaVuSans-51"/>
       </defs>
       <use xlink:href="#DejaVuSans-51"/>
       <use x="63.623047" xlink:href="#DejaVuSans-48"/>
       <use x="127.246094" xlink:href="#DejaVuSans-37"/>
      </g>
     </g>
    </g>
    <g id="text_6">
     <!--  -->
     <g style="fill:#002f6c;" transform="translate(366.572625 652.02625)scale(0.16 -0.16)"/>
     <!-- Take Rate $T_R$ -->
     <g style="fill:#002f6c;" transform="translate(315.212625 669.05725)scale(0.16 -0.16)">
      <defs>
       <path d="M 62.796875 66 
L 62.796875 52.703125 
L 41.296875 52.703125 
L 41.296875 0 
L 24.09375 0 
L 24.09375 52.703125 
L 2.5 52.703125 
L 2.5 66 
z
" id="WorkSans-Bold-84"/>
       <path d="M 34 31.703125 
Q 34 35.203125 32.046875 37.25 
Q 30.09375 39.296875 26.796875 39.296875 
Q 23.5 39.296875 21.140625 37.640625 
Q 18.796875 36 17.90625 31.796875 
L 3.5 35.203125 
Q 4.90625 42.40625 10.90625 46.703125 
Q 16.90625 51 27.796875 51 
Q 38.796875 51 44.84375 46.140625 
Q 50.90625 41.296875 50.90625 32 
L 50.90625 13.703125 
Q 50.90625 9.796875 54.40625 9.796875 
Q 56.203125 9.796875 57.296875 10.203125 
L 56.296875 0.5 
Q 53.296875 -0.90625 49 -0.90625 
Q 44.296875 -0.90625 40.890625 0.9375 
Q 37.5 2.796875 36.296875 6.59375 
Q 34.203125 2.703125 29.640625 0.84375 
Q 25.09375 -1 20 -1 
Q 12.296875 -1 7.75 2.546875 
Q 3.203125 6.09375 3.203125 12.796875 
Q 3.203125 18.203125 6.453125 21.75 
Q 9.703125 25.296875 16.703125 26.703125 
L 34 30.296875 
z
M 20 14.40625 
Q 20 12.203125 21.59375 11.09375 
Q 23.203125 10 25.40625 10 
Q 28.796875 10 31.390625 12.046875 
Q 34 14.09375 34 18.5 
L 34 21.296875 
L 25.90625 19.59375 
Q 22.90625 19 21.453125 17.84375 
Q 20 16.703125 20 14.40625 
z
" id="WorkSans-Bold-97"/>
       <path d="M 23.09375 71.203125 
L 23.09375 29 
L 42.09375 50 
L 61 50 
L 42.59375 30.40625 
L 62.09375 0 
L 43.296875 0 
L 31.203125 20.5 
L 23.09375 11.5 
L 23.09375 0 
L 6.09375 0 
L 6.09375 71.203125 
z
" id="WorkSans-Bold-107"/>
       <path d="M 30.5 -1 
Q 18 -1 10.75 5.796875 
Q 3.5 12.59375 3.5 25 
Q 3.5 33.203125 6.84375 39.046875 
Q 10.203125 44.90625 16.046875 47.953125 
Q 21.90625 51 29.703125 51 
Q 37.59375 51 43.140625 47.953125 
Q 48.703125 44.90625 51.59375 39.546875 
Q 54.5 34.203125 54.5 27.296875 
Q 54.5 25.40625 54.34375 23.65625 
Q 54.203125 21.90625 54.09375 20.703125 
L 20 20.703125 
Q 20.703125 15.5 23.390625 13.25 
Q 26.09375 11 30.5 11 
Q 34.296875 11 36.546875 12.5 
Q 38.796875 14 39.90625 16.703125 
L 53.5 12.203125 
Q 52.09375 7.90625 48.640625 4.953125 
Q 45.203125 2 40.453125 0.5 
Q 35.703125 -1 30.5 -1 
z
M 29.703125 39.09375 
Q 21.59375 39.09375 20.09375 29.796875 
L 38.40625 29.796875 
Q 37.296875 39.09375 29.703125 39.09375 
z
" id="WorkSans-Bold-101"/>
       <path id="WorkSans-Bold-32"/>
       <path d="M 38.796875 66 
Q 50.59375 66 57.140625 60.5 
Q 63.703125 55 63.703125 45.703125 
Q 63.703125 38.296875 60.25 33.546875 
Q 56.796875 28.796875 50.40625 26.59375 
L 67.59375 0 
L 48.59375 0 
L 34.5 24.09375 
L 24.203125 24.09375 
L 24.203125 0 
L 7.296875 0 
L 7.296875 66 
z
M 36.40625 36.296875 
Q 41.40625 36.296875 43.90625 38.296875 
Q 46.40625 40.296875 46.40625 44.703125 
Q 46.40625 53 36.40625 53 
L 24.203125 53 
L 24.203125 36.296875 
z
" id="WorkSans-Bold-82"/>
       <path d="M 41.90625 50 
L 41.90625 37.90625 
L 27 37.90625 
L 27 17.796875 
Q 27 14.203125 28.75 12.640625 
Q 30.5 11.09375 33.59375 11.09375 
Q 36 11.09375 37.703125 11.640625 
Q 39.40625 12.203125 40.90625 13.296875 
L 42.703125 2.796875 
Q 40.203125 1.09375 36.34375 0.046875 
Q 32.5 -1 28.59375 -1 
Q 20 -1 15.046875 2.640625 
Q 10.09375 6.296875 10 15 
L 10 37.90625 
L 1.40625 37.90625 
L 1.40625 50 
L 10 50 
L 10 61.203125 
L 27 65.90625 
L 27 50 
z
" id="WorkSans-Bold-116"/>
       <path d="M 5.90625 72.90625 
L 67.578125 72.90625 
L 66.015625 64.59375 
L 39.984375 64.59375 
L 27.484375 0 
L 17.578125 0 
L 30.078125 64.59375 
L 4.296875 64.59375 
z
" id="DejaVuSans-Oblique-84"/>
       <path d="M 25.203125 64.796875 
L 20.21875 38.921875 
L 32.90625 38.921875 
Q 40.375 38.921875 44.984375 43.046875 
Q 49.609375 47.171875 49.609375 53.8125 
Q 49.609375 59.125 46.5 61.953125 
Q 43.40625 64.796875 37.59375 64.796875 
z
M 43.3125 35.015625 
Q 46.4375 34.28125 48.515625 31.390625 
Q 50.59375 28.515625 53.328125 19.921875 
L 59.515625 0 
L 49.125 0 
L 43.40625 18.703125 
Q 41.21875 25.921875 38.328125 28.359375 
Q 35.453125 30.8125 29.5 30.8125 
L 18.609375 30.8125 
L 12.59375 0 
L 2.6875 0 
L 16.890625 72.90625 
L 39.109375 72.90625 
Q 49.21875 72.90625 54.609375 68.328125 
Q 60.015625 63.765625 60.015625 55.171875 
Q 60.015625 47.5625 55.421875 41.984375 
Q 50.828125 36.421875 43.3125 35.015625 
z
" id="DejaVuSans-Oblique-82"/>
      </defs>
      <use transform="translate(0 0.09375)" xlink:href="#WorkSans-Bold-84"/>
      <use transform="translate(65.299988 0.09375)" xlink:href="#WorkSans-Bold-97"/>
      <use transform="translate(123.199982 0.09375)" xlink:href="#WorkSans-Bold-107"/>
      <use transform="translate(185.399979 0.09375)" xlink:href="#WorkSans-Bold-101"/>
      <use transform="translate(243.299973 0.09375)" xlink:href="#WorkSans-Bold-32"/>
      <use transform="translate(271.899963 0.09375)" xlink:href="#WorkSans-Bold-82"/>
      <use transform="translate(340.799957 0.09375)" xlink:href="#WorkSans-Bold-97"/>
      <use transform="translate(398.699951 0.09375)" xlink:href="#WorkSans-Bold-116"/>
      <use transform="translate(442.399948 0.09375)" xlink:href="#WorkSans-Bold-101"/>
      <use transform="translate(500.299942 0.09375)" xlink:href="#WorkSans-Bold-32"/>
      <use transform="translate(528.899933 0.09375)" xlink:href="#DejaVuSans-Oblique-84"/>
      <use transform="translate(589.983917 -16.3125)scale(0.7)" xlink:href="#DejaVuSans-Oblique-82"/>
     </g>
     <!--  -->
     <g style="fill:#002f6c;" transform="translate(366.572625 686.08825)scale(0.16 -0.16)"/>
    </g>
   </g>
   <g id="matplotlib.axis_2">
    <g id="ytick_1">
     <g id="line2d_6"/>
     <g id="text_7">
      <!-- $0 -->
      <g style="fill:#002f6c;" transform="translate(86.682625 514.552938)scale(0.12 -0.12)">
       <defs>
        <path d="M 33.796875 -14.703125 
L 28.90625 -14.703125 
L 28.859375 0 
Q 23.734375 0.09375 18.609375 1.1875 
Q 13.484375 2.296875 8.296875 4.5 
L 8.296875 13.28125 
Q 13.28125 10.15625 18.375 8.5625 
Q 23.484375 6.984375 28.90625 6.9375 
L 28.90625 29.203125 
Q 18.109375 30.953125 13.203125 35.15625 
Q 8.296875 39.359375 8.296875 46.6875 
Q 8.296875 54.640625 13.625 59.21875 
Q 18.953125 63.8125 28.90625 64.5 
L 28.90625 75.984375 
L 33.796875 75.984375 
L 33.796875 64.65625 
Q 38.328125 64.453125 42.578125 63.6875 
Q 46.828125 62.9375 50.875 61.625 
L 50.875 53.078125 
Q 46.828125 55.125 42.546875 56.25 
Q 38.28125 57.375 33.796875 57.5625 
L 33.796875 36.71875 
Q 44.875 35.015625 50.09375 30.609375 
Q 55.328125 26.21875 55.328125 18.609375 
Q 55.328125 10.359375 49.78125 5.59375 
Q 44.234375 0.828125 33.796875 0.09375 
z
M 28.90625 37.59375 
L 28.90625 57.625 
Q 23.25 56.984375 20.265625 54.390625 
Q 17.28125 51.8125 17.28125 47.515625 
Q 17.28125 43.3125 20.03125 40.96875 
Q 22.796875 38.625 28.90625 37.59375 
z
M 33.796875 28.21875 
L 33.796875 7.078125 
Q 39.984375 7.90625 43.140625 10.59375 
Q 46.296875 13.28125 46.296875 17.671875 
Q 46.296875 21.96875 43.28125 24.5 
Q 40.28125 27.046875 33.796875 28.21875 
z
" id="DejaVuSans-36"/>
       </defs>
       <use xlink:href="#DejaVuSans-36"/>
       <use x="63.623047" xlink:href="#DejaVuSans-48"/>
      </g>
     </g>
     <g id="text_8">
      <!-- $0 -->
      <g style="fill:#002f6c;" transform="translate(631.192625 514.552938)scale(0.12 -0.12)">
       <use xlink:href="#DejaVuSans-36"/>
       <use x="63.623047" xlink:href="#DejaVuSans-48"/>
      </g>
     </g>
    </g>
    <g id="ytick_2">
     <g id="line2d_7"/>
     <g id="text_9">
      <!-- $5B -->
      <g style="fill:#002f6c;" transform="translate(78.4495 409.249633)scale(0.12 -0.12)">
       <defs>
        <path d="M 19.671875 34.8125 
L 19.671875 8.109375 
L 35.5 8.109375 
Q 43.453125 8.109375 47.28125 11.40625 
Q 51.125 14.703125 51.125 21.484375 
Q 51.125 28.328125 47.28125 31.5625 
Q 43.453125 34.8125 35.5 34.8125 
z
M 19.671875 64.796875 
L 19.671875 42.828125 
L 34.28125 42.828125 
Q 41.5 42.828125 45.03125 45.53125 
Q 48.578125 48.25 48.578125 53.8125 
Q 48.578125 59.328125 45.03125 62.0625 
Q 41.5 64.796875 34.28125 64.796875 
z
M 9.8125 72.90625 
L 35.015625 72.90625 
Q 46.296875 72.90625 52.390625 68.21875 
Q 58.5 63.53125 58.5 54.890625 
Q 58.5 48.1875 55.375 44.234375 
Q 52.25 40.28125 46.1875 39.3125 
Q 53.46875 37.75 57.5 32.78125 
Q 61.53125 27.828125 61.53125 20.40625 
Q 61.53125 10.640625 54.890625 5.3125 
Q 48.25 0 35.984375 0 
L 9.8125 0 
z
" id="DejaVuSans-66"/>
       </defs>
       <use xlink:href="#DejaVuSans-36"/>
       <use x="63.623047" xlink:href="#DejaVuSans-53"/>
       <use x="127.246094" xlink:href="#DejaVuSans-66"/>
      </g>
     </g>
     <g id="text_10">
      <!-- $5B -->
      <g style="fill:#002f6c;" transform="translate(631.192625 409.249633)scale(0.12 -0.12)">
       <use xlink:href="#DejaVuSans-36"/>
       <use x="63.623047" xlink:href="#DejaVuSans-53"/>
       <use x="127.246094" xlink:href="#DejaVuSans-66"/>
      </g>
     </g>
    </g>
    <g id="ytick_3">
     <g id="line2d_8"/>
     <g id="text_11">
      <!-- $10B -->
      <g style="fill:#002f6c;" transform="translate(70.8145 303.946327)scale(0.12 -0.12)">
       <use xlink:href="#DejaVuSans-36"/>
       <use x="63.623047" xlink:href="#DejaVuSans-49"/>
       <use x="127.246094" xlink:href="#DejaVuSans-48"/>
       <use x="190.869141" xlink:href="#DejaVuSans-66"/>
      </g>
     </g>
     <g id="text_12">
      <!-- $10B -->
      <g style="fill:#002f6c;" transform="translate(631.192625 303.946327)scale(0.12 -0.12)">
       <use xlink:href="#DejaVuSans-36"/>
       <use x="63.623047" xlink:href="#DejaVuSans-49"/>
       <use x="127.246094" xlink:href="#DejaVuSans-48"/>
       <use x="190.869141" xlink:href="#DejaVuSans-66"/>
      </g>
     </g>
    </g>
    <g id="ytick_4">
     <g id="line2d_9"/>
     <g id="text_13">
      <!-- $15B -->
      <g style="fill:#002f6c;" transform="translate(70.8145 198.643022)scale(0.12 -0.12)">
       <use xlink:href="#DejaVuSans-36"/>
       <use x="63.623047" xlink:href="#DejaVuSans-49"/>
       <use x="127.246094" xlink:href="#DejaVuSans-53"/>
       <use x="190.869141" xlink:href="#DejaVuSans-66"/>
      </g>
     </g>
     <g id="text_14">
      <!-- $15B -->
      <g style="fill:#002f6c;" transform="translate(631.192625 198.643022)scale(0.12 -0.12)">
       <use xlink:href="#DejaVuSans-36"/>
       <use x="63.623047" xlink:href="#DejaVuSans-49"/>
       <use x="127.246094" xlink:href="#DejaVuSans-53"/>
       <use x="190.869141" xlink:href="#DejaVuSans-66"/>
      </g>
     </g>
    </g>
    <g id="text_15">
     <!--  -->
     <g style="fill:#002f6c;" transform="translate(29.3925 360.4)rotate(-90)scale(0.16 -0.16)"/>
     <!-- Revenue $R$ -->
     <g style="fill:#002f6c;" transform="translate(46.4235 402.08)rotate(-90)scale(0.16 -0.16)">
      <defs>
       <path d="M 38.59375 50 
L 56.203125 50 
L 38.203125 0 
L 17.90625 0 
L -0.09375 50 
L 17.796875 50 
L 28.09375 11.90625 
z
" id="WorkSans-Bold-118"/>
       <path d="M 6.09375 0 
L 6.09375 50 
L 21.296875 50 
L 21.796875 39.90625 
Q 24.09375 45.40625 28.5 48.203125 
Q 32.90625 51 38.90625 51 
Q 46.59375 51 51.390625 46.5 
Q 56.203125 42 56.203125 33.296875 
L 56.203125 0 
L 39.203125 0 
L 39.203125 28.796875 
Q 39.203125 34 37.203125 36 
Q 35.203125 38 32.09375 38 
Q 28.40625 38 25.75 35.390625 
Q 23.09375 32.796875 23.09375 26.5 
L 23.09375 0 
z
" id="WorkSans-Bold-110"/>
       <path d="M 23 -1 
Q 15.40625 -1 10.59375 3.09375 
Q 5.796875 7.203125 5.796875 16.59375 
L 5.796875 50 
L 22.796875 50 
L 22.796875 20.59375 
Q 22.796875 15.796875 24.6875 13.890625 
Q 26.59375 12 30.09375 12 
Q 33.703125 12 36.25 14.640625 
Q 38.796875 17.296875 38.796875 23.203125 
L 38.796875 50 
L 55.796875 50 
L 55.796875 0 
L 40.59375 0 
L 40.09375 9.40625 
Q 37.703125 4.09375 33.390625 1.546875 
Q 29.09375 -1 23 -1 
z
" id="WorkSans-Bold-117"/>
      </defs>
      <use transform="translate(0 0.09375)" xlink:href="#WorkSans-Bold-82"/>
      <use transform="translate(68.899994 0.09375)" xlink:href="#WorkSans-Bold-101"/>
      <use transform="translate(126.799988 0.09375)" xlink:href="#WorkSans-Bold-118"/>
      <use transform="translate(182.899979 0.09375)" xlink:href="#WorkSans-Bold-101"/>
      <use transform="translate(240.799973 0.09375)" xlink:href="#WorkSans-Bold-110"/>
      <use transform="translate(302.799957 0.09375)" xlink:href="#WorkSans-Bold-117"/>
      <use transform="translate(364.699951 0.09375)" xlink:href="#WorkSans-Bold-101"/>
      <use transform="translate(422.599945 0.09375)" xlink:href="#WorkSans-Bold-32"/>
      <use transform="translate(451.199936 0.09375)" xlink:href="#DejaVuSans-Oblique-82"/>
     </g>
     <!--  -->
     <g style="fill:#002f6c;" transform="translate(63.4545 360.4)rotate(-90)scale(0.16 -0.16)"/>
    </g>
   </g>
   <g id="patch_3">
    <path d="M 121.952625 605.02 
L 121.952625 115.78 
" style="fill:none;stroke:#f0f0f0;stroke-linecap:square;stroke-linejoin:miter;stroke-width:3;"/>
   </g>
   <g id="patch_4">
    <path d="M 611.192625 605.02 
L 611.192625 115.78 
" style="fill:none;stroke:#f0f0f0;stroke-linecap:square;stroke-linejoin:miter;stroke-width:3;"/>
   </g>
   <g id="patch_5">
    <path d="M 121.952625 605.02 
L 611.192625 605.02 
" style="fill:none;stroke:#f0f0f0;stroke-linecap:square;stroke-linejoin:miter;stroke-width:3;"/>
   </g>
   <g id="patch_6">
    <path d="M 121.952625 115.78 
L 611.192625 115.78 
" style="fill:none;stroke:#f0f0f0;stroke-linecap:square;stroke-linejoin:miter;stroke-width:3;"/>
   </g>
   <g id="line2d_10">
    <defs>
     <path d="M 0 34.743574 
C 9.214103 34.743574 18.052062 31.082772 24.567417 24.567417 
C 31.082772 18.052062 34.743574 9.214103 34.743574 0 
C 34.743574 -9.214103 31.082772 -18.052062 24.567417 -24.567417 
C 18.052062 -31.082772 9.214103 -34.743574 0 -34.743574 
C -9.214103 -34.743574 -18.052062 -31.082772 -24.567417 -24.567417 
C -31.082772 -18.052062 -34.743574 -9.214103 -34.743574 0 
C -34.743574 9.214103 -31.082772 18.052062 -24.567417 24.567417 
C -18.052062 31.082772 -9.214103 34.743574 0 34.743574 
z
" id="md0cd7fcad5" style="stroke:#37a000;stroke-opacity:0.67;"/>
    </defs>
    <g clip-path="url(#p8dde068632)">
     <use style="fill:#37a000;fill-opacity:0.67;stroke:#37a000;stroke-opacity:0.67;" x="219.211179" xlink:href="#md0cd7fcad5" y="503.675678"/>
    </g>
   </g>
   <g id="text_16">
    <!-- Upwork -->
    <g style="fill:#37a000;opacity:0.7;" transform="translate(191.659617 555.890814)scale(0.14 -0.14)">
     <defs>
      <path d="M 66.296875 66 
L 66.296875 27.703125 
Q 66.296875 -1 35.59375 -1 
Q 4.796875 -1 4.796875 27.703125 
L 4.796875 66 
L 25.296875 66 
L 25.296875 26.59375 
Q 25.296875 14.59375 35.59375 14.59375 
Q 45.90625 14.59375 45.90625 26.59375 
L 45.90625 66 
z
" id="WorkSans-ExtraBold-85"/>
      <path d="M 4.90625 -21 
L 4.90625 50 
L 23.203125 50 
L 23.703125 39.90625 
Q 25.796875 44.90625 29.890625 47.953125 
Q 34 51 39.796875 51 
Q 49 51 54.25 44.25 
Q 59.5 37.5 59.5 25.203125 
Q 59.5 12.796875 54.140625 5.890625 
Q 48.796875 -1 39.703125 -1 
Q 34.296875 -1 30.6875 1.59375 
Q 27.09375 4.203125 25.09375 8.5 
L 25.09375 -21 
z
M 32 13.5 
Q 35.296875 13.5 37.25 16.046875 
Q 39.203125 18.59375 39.203125 25 
Q 39.203125 31.40625 37.296875 34 
Q 35.40625 36.59375 32.09375 36.59375 
Q 28.796875 36.59375 26.9375 33.6875 
Q 25.09375 30.796875 25.09375 25 
Q 25.09375 19.5 26.84375 16.5 
Q 28.59375 13.5 32 13.5 
z
" id="WorkSans-ExtraBold-112"/>
      <path d="M 71.40625 50 
L 92.40625 50 
L 78.09375 0 
L 53.40625 0 
L 46 27.40625 
L 38.796875 0 
L 14.09375 0 
L -0.203125 50 
L 20.796875 50 
L 27.796875 14.5 
L 36.203125 50 
L 56 50 
L 64.40625 14.5 
z
" id="WorkSans-ExtraBold-119"/>
      <path d="M 29.90625 51 
Q 38 51 44.140625 47.953125 
Q 50.296875 44.90625 53.6875 39.046875 
Q 57.09375 33.203125 57.09375 25 
Q 57.09375 16.796875 53.6875 10.9375 
Q 50.296875 5.09375 44.140625 2.046875 
Q 38 -1 29.90625 -1 
Q 21.796875 -1 15.6875 2.046875 
Q 9.59375 5.09375 6.140625 10.9375 
Q 2.703125 16.796875 2.703125 25 
Q 2.703125 33.203125 6.140625 39.046875 
Q 9.59375 44.90625 15.6875 47.953125 
Q 21.796875 51 29.90625 51 
z
M 29.90625 37.09375 
Q 26.59375 37.09375 24.796875 34.4375 
Q 23 31.796875 23 25 
Q 23 18.203125 24.796875 15.546875 
Q 26.59375 12.90625 29.90625 12.90625 
Q 33.203125 12.90625 35 15.546875 
Q 36.796875 18.203125 36.796875 25 
Q 36.796875 31.796875 35 34.4375 
Q 33.203125 37.09375 29.90625 37.09375 
z
" id="WorkSans-ExtraBold-111"/>
      <path d="M 4.90625 0 
L 4.90625 50 
L 23 50 
L 23.59375 38.296875 
Q 25.296875 44.203125 28.9375 47.59375 
Q 32.59375 51 38.5 51 
Q 40.59375 51 41.84375 50.640625 
Q 43.09375 50.296875 43.796875 49.796875 
L 42 33.40625 
Q 41 33.796875 39.390625 34.09375 
Q 37.796875 34.40625 35.703125 34.40625 
Q 31.203125 34.40625 28.140625 31.953125 
Q 25.09375 29.5 25.09375 24.59375 
L 25.09375 0 
z
" id="WorkSans-ExtraBold-114"/>
      <path d="M 25.09375 70.59375 
L 25.09375 30.796875 
L 41.796875 50 
L 63.796875 50 
L 45.703125 30.40625 
L 64.90625 0 
L 42.703125 0 
L 32.296875 18.90625 
L 25.09375 10.5 
L 25.09375 0 
L 4.90625 0 
L 4.90625 70.59375 
z
" id="WorkSans-ExtraBold-107"/>
     </defs>
     <use xlink:href="#WorkSans-ExtraBold-85"/>
     <use x="71.099991" xlink:href="#WorkSans-ExtraBold-112"/>
     <use x="133.799988" xlink:href="#WorkSans-ExtraBold-119"/>
     <use x="225.999969" xlink:href="#WorkSans-ExtraBold-111"/>
     <use x="285.799957" xlink:href="#WorkSans-ExtraBold-114"/>
     <use x="329.499954" xlink:href="#WorkSans-ExtraBold-107"/>
    </g>
   </g>
   <g id="text_17">
    <!-- -6.0% -->
    <g style="fill:#ffffff;" transform="translate(197.877539 507.121806)scale(0.138974 -0.138974)">
     <defs>
      <path d="M 45.703125 34.90625 
L 45.703125 19.09375 
L 7.796875 19.09375 
L 7.796875 34.90625 
z
" id="WorkSans-ExtraBold-45"/>
      <path d="M 34.796875 67 
Q 40.203125 67 44.953125 65.59375 
Q 49.703125 64.203125 53.25 60.890625 
Q 56.796875 57.59375 58.5 52.09375 
L 42.09375 44.40625 
Q 41.203125 47.59375 39.140625 49.390625 
Q 37.09375 51.203125 33.59375 51.203125 
Q 28.796875 51.203125 25.796875 47.09375 
Q 22.796875 43 22.796875 34.90625 
L 22.796875 33.40625 
L 22.90625 32.5 
Q 24.703125 36.40625 29.203125 38.59375 
Q 33.703125 40.796875 38.40625 40.796875 
Q 44.40625 40.796875 49.09375 38.5 
Q 53.796875 36.203125 56.546875 31.796875 
Q 59.296875 27.40625 59.296875 21.296875 
Q 59.296875 14.40625 56.09375 9.40625 
Q 52.90625 4.40625 47.203125 1.703125 
Q 41.5 -1 33.796875 -1 
Q 25.203125 -1 18.5 2.546875 
Q 11.796875 6.09375 7.9375 13.4375 
Q 4.09375 20.796875 4.09375 32.203125 
Q 4.09375 44.09375 8.1875 51.796875 
Q 12.296875 59.5 19.25 63.25 
Q 26.203125 67 34.796875 67 
z
M 33.40625 27.90625 
Q 30.296875 27.90625 28 26 
Q 25.703125 24.09375 25.703125 20.796875 
Q 25.703125 17.59375 28 15.640625 
Q 30.296875 13.703125 33.40625 13.703125 
Q 37.09375 13.703125 39.046875 15.546875 
Q 41 17.40625 41 20.796875 
Q 41 24.203125 39.046875 26.046875 
Q 37.09375 27.90625 33.40625 27.90625 
z
" id="WorkSans-ExtraBold-54"/>
      <path d="M 14.90625 19 
Q 20.203125 19 23.140625 16.390625 
Q 26.09375 13.796875 26.09375 9.09375 
Q 26.09375 4.40625 23.140625 1.796875 
Q 20.203125 -0.796875 14.90625 -0.796875 
Q 9.59375 -0.796875 6.640625 1.796875 
Q 3.703125 4.40625 3.703125 9.09375 
Q 3.703125 13.796875 6.640625 16.390625 
Q 9.59375 19 14.90625 19 
z
" id="WorkSans-ExtraBold-46"/>
      <path d="M 32.59375 -1 
Q 4.09375 -1 4.09375 33 
Q 4.09375 67 32.59375 67 
Q 61 67 61 33 
Q 61 -1 32.59375 -1 
z
M 32.59375 14.59375 
Q 37.203125 14.59375 39.046875 18.59375 
Q 40.90625 22.59375 40.90625 33 
Q 40.90625 43.40625 39.046875 47.40625 
Q 37.203125 51.40625 32.59375 51.40625 
Q 28 51.40625 26.09375 47.40625 
Q 24.203125 43.40625 24.203125 33 
Q 24.203125 22.59375 26.09375 18.59375 
Q 28 14.59375 32.59375 14.59375 
z
" id="WorkSans-ExtraBold-48"/>
      <path d="M 22.296875 67 
Q 31.09375 67 36.4375 61.796875 
Q 41.796875 56.59375 41.796875 48 
Q 41.796875 39.40625 36.4375 34.203125 
Q 31.09375 29 22.296875 29 
Q 13.5 29 8.09375 34.203125 
Q 2.703125 39.40625 2.703125 48 
Q 2.703125 56.59375 8.09375 61.796875 
Q 13.5 67 22.296875 67 
z
M 17.296875 0 
L 64.59375 66.09375 
L 79.59375 66.09375 
L 32.203125 0 
z
M 22.296875 53.796875 
Q 17.296875 53.796875 17.296875 48 
Q 17.296875 42.203125 22.296875 42.203125 
Q 27.203125 42.203125 27.203125 48 
Q 27.203125 53.796875 22.296875 53.796875 
z
M 74.40625 37 
Q 83.203125 37 88.59375 31.796875 
Q 94 26.59375 94 18 
Q 94 9.40625 88.59375 4.203125 
Q 83.203125 -1 74.40625 -1 
Q 65.59375 -1 60.1875 4.203125 
Q 54.796875 9.40625 54.796875 18 
Q 54.796875 26.59375 60.1875 31.796875 
Q 65.59375 37 74.40625 37 
z
M 74.40625 23.796875 
Q 69.40625 23.796875 69.40625 18 
Q 69.40625 12.203125 74.40625 12.203125 
Q 79.40625 12.203125 79.40625 18 
Q 79.40625 23.796875 74.40625 23.796875 
z
" id="WorkSans-ExtraBold-37"/>
     </defs>
     <use xlink:href="#WorkSans-ExtraBold-45"/>
     <use x="53.399994" xlink:href="#WorkSans-ExtraBold-54"/>
     <use x="115.299988" xlink:href="#WorkSans-ExtraBold-46"/>
     <use x="145.199982" xlink:href="#WorkSans-ExtraBold-48"/>
     <use x="210.299973" xlink:href="#WorkSans-ExtraBold-37"/>
    </g>
   </g>
   <g id="text_18">
    <!--  -->
    <g style="fill:#002f6c;" transform="translate(366.572625 40.59)scale(0.32 -0.32)"/>
    <!-- Profit Margins of Flexible Work Firms -->
    <g style="fill:#002f6c;" transform="translate(67.257625 75.072)scale(0.32 -0.32)">
     <defs>
      <path d="M 38.90625 66 
Q 51.59375 66 58.59375 60.09375 
Q 65.59375 54.203125 65.59375 43.296875 
Q 65.59375 32.40625 58.59375 26.5 
Q 51.59375 20.59375 38.90625 20.59375 
L 26.5 20.59375 
L 26.5 0 
L 6.09375 0 
L 6.09375 66 
z
M 35.59375 35.40625 
Q 40.203125 35.40625 42.640625 37.34375 
Q 45.09375 39.296875 45.09375 43.296875 
Q 45.09375 47.296875 42.640625 49.25 
Q 40.203125 51.203125 35.59375 51.203125 
L 26.5 51.203125 
L 26.5 35.40625 
z
" id="WorkSans-ExtraBold-80"/>
      <path d="M 41.703125 50 
L 41.703125 36.09375 
L 28.40625 36.09375 
L 28.40625 0 
L 8.203125 0 
L 8.203125 36.09375 
L 0.796875 36.09375 
L 0.796875 50 
L 8.203125 50 
L 8.203125 53.203125 
Q 8.203125 60.296875 11.25 64.5 
Q 14.296875 68.703125 19.1875 70.5 
Q 24.09375 72.296875 29.40625 72.296875 
Q 33.90625 72.296875 37.296875 71.34375 
Q 40.703125 70.40625 42.296875 69.296875 
L 40.703125 57.296875 
Q 39.703125 57.796875 38.296875 58.25 
Q 36.90625 58.703125 34.703125 58.703125 
Q 31.296875 58.703125 29.1875 57.296875 
Q 27.09375 55.90625 27.09375 52.09375 
L 27.09375 50 
z
" id="WorkSans-ExtraBold-102"/>
      <path d="M 15 54.40625 
Q 9 54.40625 6.34375 56.453125 
Q 3.703125 58.5 3.703125 63.296875 
Q 3.703125 68.09375 6.34375 70.1875 
Q 9 72.296875 15 72.296875 
Q 21.09375 72.296875 23.6875 70.1875 
Q 26.296875 68.09375 26.296875 63.296875 
Q 26.296875 58.5 23.6875 56.453125 
Q 21.09375 54.40625 15 54.40625 
z
M 25.09375 50 
L 25.09375 0 
L 4.90625 0 
L 4.90625 50 
z
" id="WorkSans-ExtraBold-105"/>
      <path d="M 42.796875 50 
L 42.796875 36.09375 
L 29.203125 36.09375 
L 29.203125 19.203125 
Q 29.203125 15.703125 30.75 14.203125 
Q 32.296875 12.703125 35.40625 12.703125 
Q 37.59375 12.703125 39.1875 13.140625 
Q 40.796875 13.59375 42.203125 14.40625 
L 43.5 2.59375 
Q 41 0.90625 36.953125 -0.046875 
Q 32.90625 -1 29 -1 
Q 19.40625 -1 14.203125 2.84375 
Q 9 6.703125 9 16 
L 9 36.09375 
L 0.796875 36.09375 
L 0.796875 50 
L 9 50 
L 9 60.90625 
L 29.203125 66.5 
L 29.203125 50 
z
" id="WorkSans-ExtraBold-116"/>
      <path id="WorkSans-ExtraBold-32"/>
      <path d="M 87 66 
L 87 0 
L 69 0 
L 69 26.40625 
L 69.40625 47.703125 
L 69.203125 47.703125 
L 54.703125 0 
L 38.296875 0 
L 24 47.703125 
L 23.703125 47.703125 
L 24.09375 26.40625 
L 24.09375 0 
L 6.09375 0 
L 6.09375 66 
L 34.90625 66 
L 43.796875 34.703125 
L 47.09375 21.59375 
L 47.296875 21.59375 
L 50.59375 34.703125 
L 59.5 66 
z
" id="WorkSans-ExtraBold-77"/>
      <path d="M 32.40625 31.40625 
Q 32.40625 34.296875 30.90625 35.9375 
Q 29.40625 37.59375 26.703125 37.59375 
Q 24.09375 37.59375 22.25 36.1875 
Q 20.40625 34.796875 19.90625 30.90625 
L 2.796875 34 
Q 3.796875 41.796875 10.09375 46.390625 
Q 16.40625 51 28.09375 51 
Q 40.09375 51 46.25 45.890625 
Q 52.40625 40.796875 52.40625 31.90625 
L 52.40625 15.09375 
Q 52.40625 11.09375 56.203125 11.09375 
Q 57.59375 11.09375 58.40625 11.5 
L 57.40625 0.703125 
Q 54 -1 49.296875 -1 
Q 44 -1 40.203125 0.953125 
Q 36.40625 2.90625 35.09375 6.90625 
Q 33.09375 3.203125 28.6875 1.09375 
Q 24.296875 -1 18.90625 -1 
Q 11.09375 -1 6.6875 2.546875 
Q 2.296875 6.09375 2.296875 12.5 
Q 2.296875 23.59375 15.90625 26.296875 
L 32.40625 29.703125 
z
M 21.703125 15.09375 
Q 21.703125 13.203125 22.953125 12.140625 
Q 24.203125 11.09375 26.296875 11.09375 
Q 28.703125 11.09375 30.546875 12.6875 
Q 32.40625 14.296875 32.40625 17.5 
L 32.40625 21.203125 
L 26.5 19.90625 
Q 21.703125 18.796875 21.703125 15.09375 
z
" id="WorkSans-ExtraBold-97"/>
      <path d="M 37.703125 12.703125 
Q 46.90625 12.703125 51.796875 8.953125 
Q 56.703125 5.203125 56.703125 -2.203125 
Q 56.703125 -12.203125 49.09375 -16.84375 
Q 41.5 -21.5 28 -21.5 
Q 13.796875 -21.5 7.75 -18.296875 
Q 1.703125 -15.09375 1.703125 -9.203125 
Q 1.703125 -5.90625 4.046875 -3.59375 
Q 6.40625 -1.296875 11.59375 -0.5 
Q 3.59375 2.296875 3.59375 10.203125 
Q 3.59375 13.90625 5.796875 16.5 
Q 8 19.09375 11.796875 20.40625 
Q 3.796875 24.59375 3.796875 33.90625 
Q 3.796875 42.296875 10.34375 46.640625 
Q 16.90625 51 29.203125 51 
Q 34.90625 51 39.40625 50.09375 
Q 39.796875 53.90625 41.390625 57.296875 
Q 43 60.703125 46 62.84375 
Q 49 65 53.59375 65 
Q 54 65 54.5 65 
Q 55 65 55.5 64.90625 
L 56.90625 52 
Q 55.40625 52.296875 53.90625 52.296875 
Q 50.703125 52.296875 48.796875 51.046875 
Q 46.90625 49.796875 46.09375 47.796875 
Q 54.703125 43.5 54.703125 33.90625 
Q 54.703125 25.59375 48.140625 21.296875 
Q 41.59375 17 29.203125 17 
Q 23.40625 17 18.90625 18 
Q 16.59375 17.296875 16.59375 15.5 
Q 16.59375 12.703125 21.40625 12.703125 
z
M 29.203125 40.09375 
Q 26.59375 40.09375 25.046875 38.59375 
Q 23.5 37.09375 23.5 34 
Q 23.5 31 25.046875 29.453125 
Q 26.59375 27.90625 29.203125 27.90625 
Q 31.796875 27.90625 33.34375 29.453125 
Q 34.90625 31 34.90625 34 
Q 34.90625 37.09375 33.34375 38.59375 
Q 31.796875 40.09375 29.203125 40.09375 
z
M 28.203125 -8.90625 
Q 41.5 -8.90625 41.5 -5 
Q 41.5 -4 40.796875 -3.453125 
Q 40.09375 -2.90625 38.09375 -2.90625 
L 19.40625 -2.90625 
Q 18 -2.90625 17.203125 -3.59375 
Q 16.40625 -4.296875 16.40625 -5.40625 
Q 16.40625 -7.09375 19.546875 -8 
Q 22.703125 -8.90625 28.203125 -8.90625 
z
" id="WorkSans-ExtraBold-103"/>
      <path d="M 4.90625 0 
L 4.90625 50 
L 23.09375 50 
L 23.59375 39.40625 
Q 25.796875 45 30.1875 48 
Q 34.59375 51 40.796875 51 
Q 48.40625 51 52.796875 46.546875 
Q 57.203125 42.09375 57.203125 33.796875 
L 57.203125 0 
L 37 0 
L 37 28.59375 
Q 37 32.703125 35.640625 34.296875 
Q 34.296875 35.90625 31.796875 35.90625 
Q 28.796875 35.90625 26.9375 33.703125 
Q 25.09375 31.5 25.09375 26.40625 
L 25.09375 0 
z
" id="WorkSans-ExtraBold-110"/>
      <path d="M 27 -1 
Q 19.59375 -1 13 1.203125 
Q 6.40625 3.40625 1.703125 7.703125 
L 9.796875 18.40625 
Q 12.5 15.703125 16.75 13.703125 
Q 21 11.703125 25.703125 11.703125 
Q 28.09375 11.703125 29.75 12.34375 
Q 31.40625 13 31.40625 14.40625 
Q 31.40625 15.40625 30.546875 16.046875 
Q 29.703125 16.703125 27 17.203125 
L 21.796875 18.203125 
Q 11.5 20.203125 7.296875 24.046875 
Q 3.09375 27.90625 3.09375 34.203125 
Q 3.09375 38.296875 5.640625 42.140625 
Q 8.203125 46 13.75 48.5 
Q 19.296875 51 28.09375 51 
Q 35.796875 51 41.796875 48.890625 
Q 47.796875 46.796875 51.5 43.09375 
L 43.59375 32.703125 
Q 40.90625 35.296875 36.796875 36.796875 
Q 32.703125 38.296875 29 38.296875 
Q 23.203125 38.296875 23.203125 35.703125 
Q 23.203125 34.703125 24.34375 33.953125 
Q 25.5 33.203125 28.59375 32.59375 
L 36.59375 31.203125 
Q 44.5 29.796875 48.09375 26 
Q 51.703125 22.203125 51.703125 16.703125 
Q 51.703125 11.796875 49.09375 7.796875 
Q 46.5 3.796875 41 1.390625 
Q 35.5 -1 27 -1 
z
" id="WorkSans-ExtraBold-115"/>
      <path d="M 59.203125 50.703125 
L 26.5 50.703125 
L 26.5 39.203125 
L 52.703125 39.203125 
L 52.703125 23.90625 
L 26.5 23.90625 
L 26.5 0 
L 6.09375 0 
L 6.09375 66 
L 59.203125 66 
z
" id="WorkSans-ExtraBold-70"/>
      <path d="M 25 70.59375 
L 25 18.59375 
Q 25 15.40625 26 14 
Q 27 12.59375 29.5 12.59375 
Q 30.796875 12.59375 31.6875 12.75 
Q 32.59375 12.90625 33.703125 13.296875 
L 32.59375 1.90625 
Q 30.796875 0.59375 27.546875 -0.203125 
Q 24.296875 -1 21.09375 -1 
Q 12.40625 -1 8.59375 2.890625 
Q 4.796875 6.796875 4.796875 15.703125 
L 4.796875 70.59375 
z
" id="WorkSans-ExtraBold-108"/>
      <path d="M 30.5 -1 
Q 17.5 -1 10.09375 5.796875 
Q 2.703125 12.59375 2.703125 25 
Q 2.703125 33.296875 6.09375 39.09375 
Q 9.5 44.90625 15.59375 47.953125 
Q 21.703125 51 29.703125 51 
Q 37.90625 51 43.65625 47.953125 
Q 49.40625 44.90625 52.453125 39.5 
Q 55.5 34.09375 55.5 26.90625 
Q 55.5 23.203125 55 20.59375 
L 22.09375 20.59375 
Q 22.796875 16.09375 24.9375 14.4375 
Q 27.09375 12.796875 30.703125 12.796875 
Q 33.796875 12.796875 35.640625 14.09375 
Q 37.5 15.40625 38.296875 17.703125 
L 54.5 12.90625 
Q 53.203125 8.296875 49.59375 5.1875 
Q 46 2.09375 41 0.546875 
Q 36 -1 30.5 -1 
z
M 29.703125 37.296875 
Q 26.5 37.296875 24.640625 35.5 
Q 22.796875 33.703125 22.203125 29.40625 
L 36.40625 29.40625 
Q 36 33.296875 34.453125 35.296875 
Q 32.90625 37.296875 29.703125 37.296875 
z
" id="WorkSans-ExtraBold-101"/>
      <path d="M 23.09375 50 
L 30.59375 34.703125 
L 38.296875 50 
L 60.796875 50 
L 43.703125 25.09375 
L 61.203125 0 
L 38.203125 0 
L 30.203125 16.09375 
L 22.296875 0 
L -0.40625 0 
L 17.296875 25.40625 
L 0.203125 50 
z
" id="WorkSans-ExtraBold-120"/>
      <path d="M 39.703125 -1 
Q 33.59375 -1 29.34375 2.453125 
Q 25.09375 5.90625 23.203125 11.5 
L 22.59375 0 
L 4.90625 0 
L 4.90625 70.59375 
L 25.09375 70.59375 
L 25.09375 41.40625 
Q 27.09375 45.703125 30.890625 48.34375 
Q 34.703125 51 40.5 51 
Q 49.09375 51 54.296875 44.09375 
Q 59.5 37.203125 59.5 24.796875 
Q 59.5 12.5 54.25 5.75 
Q 49 -1 39.703125 -1 
z
M 32 13.40625 
Q 35.40625 13.40625 37.296875 16 
Q 39.203125 18.59375 39.203125 25 
Q 39.203125 31.40625 37.296875 33.953125 
Q 35.40625 36.5 32 36.5 
Q 28.703125 36.5 26.890625 33.5 
Q 25.09375 30.5 25.09375 25 
Q 25.09375 19.09375 26.9375 16.25 
Q 28.796875 13.40625 32 13.40625 
z
" id="WorkSans-ExtraBold-98"/>
      <path d="M 18.90625 0 
L 0 66 
L 22 66 
L 31.296875 16.203125 
L 41.703125 66 
L 59.703125 66 
L 70.59375 16.5 
L 79.703125 66 
L 100.90625 66 
L 82 0 
L 60 0 
L 53.59375 28.203125 
L 50.90625 44.703125 
L 50.59375 44.703125 
L 47.90625 28.203125 
L 41.5 0 
z
" id="WorkSans-ExtraBold-87"/>
      <path d="M 4.90625 0 
L 4.90625 50 
L 23.09375 50 
L 23.59375 39.703125 
Q 25.796875 45.203125 30.1875 48.09375 
Q 34.59375 51 40.703125 51 
Q 46.296875 51 50.25 48.453125 
Q 54.203125 45.90625 55.90625 41 
Q 58.296875 45.90625 62.640625 48.453125 
Q 67 51 72.59375 51 
Q 80 51 84.453125 46.59375 
Q 88.90625 42.203125 88.90625 33.796875 
L 88.90625 0 
L 68.703125 0 
L 68.703125 28.796875 
Q 68.703125 32.796875 67.390625 34.34375 
Q 66.09375 35.90625 63.703125 35.90625 
Q 60.59375 35.90625 58.796875 33.546875 
Q 57 31.203125 57 26.40625 
L 57 0 
L 36.796875 0 
L 36.796875 28.796875 
Q 36.796875 32.796875 35.5 34.34375 
Q 34.203125 35.90625 31.796875 35.90625 
Q 28.796875 35.90625 26.9375 33.59375 
Q 25.09375 31.296875 25.09375 26.296875 
L 25.09375 0 
z
" id="WorkSans-ExtraBold-109"/>
     </defs>
     <use xlink:href="#WorkSans-ExtraBold-80"/>
     <use x="68.799988" xlink:href="#WorkSans-ExtraBold-114"/>
     <use x="112.499985" xlink:href="#WorkSans-ExtraBold-111"/>
     <use x="172.299973" xlink:href="#WorkSans-ExtraBold-102"/>
     <use x="214.59996" xlink:href="#WorkSans-ExtraBold-105"/>
     <use x="244.599945" xlink:href="#WorkSans-ExtraBold-116"/>
     <use x="288.899933" xlink:href="#WorkSans-ExtraBold-32"/>
     <use x="315.59993" xlink:href="#WorkSans-ExtraBold-77"/>
     <use x="408.599915" xlink:href="#WorkSans-ExtraBold-97"/>
     <use x="466.999908" xlink:href="#WorkSans-ExtraBold-114"/>
     <use x="510.699905" xlink:href="#WorkSans-ExtraBold-103"/>
     <use x="567.599899" xlink:href="#WorkSans-ExtraBold-105"/>
     <use x="597.599884" xlink:href="#WorkSans-ExtraBold-110"/>
     <use x="659.599869" xlink:href="#WorkSans-ExtraBold-115"/>
     <use x="713.19986" xlink:href="#WorkSans-ExtraBold-32"/>
     <use x="739.899857" xlink:href="#WorkSans-ExtraBold-111"/>
     <use x="799.699844" xlink:href="#WorkSans-ExtraBold-102"/>
     <use x="841.999832" xlink:href="#WorkSans-ExtraBold-32"/>
     <use x="868.699829" xlink:href="#WorkSans-ExtraBold-70"/>
     <use x="929.999817" xlink:href="#WorkSans-ExtraBold-108"/>
     <use x="963.399811" xlink:href="#WorkSans-ExtraBold-101"/>
     <use x="1021.399796" xlink:href="#WorkSans-ExtraBold-120"/>
     <use x="1082.299789" xlink:href="#WorkSans-ExtraBold-105"/>
     <use x="1112.299774" xlink:href="#WorkSans-ExtraBold-98"/>
     <use x="1174.999771" xlink:href="#WorkSans-ExtraBold-108"/>
     <use x="1208.399765" xlink:href="#WorkSans-ExtraBold-101"/>
     <use x="1266.39975" xlink:href="#WorkSans-ExtraBold-32"/>
     <use x="1293.099747" xlink:href="#WorkSans-ExtraBold-87"/>
     <use x="1394.099731" xlink:href="#WorkSans-ExtraBold-111"/>
     <use x="1453.899719" xlink:href="#WorkSans-ExtraBold-114"/>
     <use x="1497.599716" xlink:href="#WorkSans-ExtraBold-107"/>
     <use x="1561.699707" xlink:href="#WorkSans-ExtraBold-32"/>
     <use x="1588.399704" xlink:href="#WorkSans-ExtraBold-70"/>
     <use x="1649.699692" xlink:href="#WorkSans-ExtraBold-105"/>
     <use x="1679.699677" xlink:href="#WorkSans-ExtraBold-114"/>
     <use x="1723.399673" xlink:href="#WorkSans-ExtraBold-109"/>
     <use x="1817.099655" xlink:href="#WorkSans-ExtraBold-115"/>
    </g>
    <!--  -->
    <g style="fill:#002f6c;" transform="translate(366.572625 109.06)scale(0.32 -0.32)"/>
   </g>
   <g id="line2d_11">
    <defs>
     <path d="M 0 83.177611 
C 22.05896 83.177611 43.217413 74.413494 58.815453 58.815453 
C 74.413494 43.217413 83.177611 22.05896 83.177611 0 
C 83.177611 -22.05896 74.413494 -43.217413 58.815453 -58.815453 
C 43.217413 -74.413494 22.05896 -83.177611 0 -83.177611 
C -22.05896 -83.177611 -43.217413 -74.413494 -58.815453 -58.815453 
C -74.413494 -43.217413 -83.177611 -22.05896 -83.177611 0 
C -83.177611 22.05896 -74.413494 43.217413 -58.815453 58.815453 
C -43.217413 74.413494 -22.05896 83.177611 0 83.177611 
z
" id="m0fef611cc0" style="stroke:#1dbf73;stroke-opacity:0.67;"/>
    </defs>
    <g clip-path="url(#p8dde068632)">
     <use style="fill:#1dbf73;fill-opacity:0.67;stroke:#1dbf73;stroke-opacity:0.67;" x="478.089395" xlink:href="#m0fef611cc0" y="507.761446"/>
    </g>
   </g>
   <g id="text_19">
    <!-- Fiverr -->
    <g style="fill:#1dbf73;opacity:0.7;" transform="translate(342.317565 511.233008)scale(0.14 -0.14)">
     <defs>
      <path d="M 37.203125 50 
L 58.09375 50 
L 41.09375 0 
L 16.40625 0 
L -0.59375 50 
L 20.5 50 
L 28.796875 13.296875 
z
" id="WorkSans-ExtraBold-118"/>
     </defs>
     <use xlink:href="#WorkSans-ExtraBold-70"/>
     <use x="61.299988" xlink:href="#WorkSans-ExtraBold-105"/>
     <use x="91.299973" xlink:href="#WorkSans-ExtraBold-118"/>
     <use x="148.799957" xlink:href="#WorkSans-ExtraBold-101"/>
     <use x="206.799942" xlink:href="#WorkSans-ExtraBold-114"/>
     <use x="250.499939" xlink:href="#WorkSans-ExtraBold-114"/>
    </g>
   </g>
   <g id="text_20">
    <!-- -32.0% -->
    <g style="fill:#ffffff;" transform="translate(417.385334 516.011625)scale(0.33271 -0.33271)">
     <defs>
      <path d="M 30.5 -1 
Q 7.90625 -1 2.203125 15.59375 
L 20.796875 23.296875 
Q 20.90625 18 23.34375 16.140625 
Q 25.796875 14.296875 29.203125 14.296875 
Q 32.5 14.296875 34.5 16 
Q 36.5 17.703125 36.5 20.796875 
Q 36.5 24.09375 34.453125 25.4375 
Q 32.40625 26.796875 29.296875 26.796875 
Q 26.796875 26.796875 24.40625 26.40625 
L 24.40625 38.796875 
Q 25.09375 38.796875 25.9375 38.6875 
Q 26.796875 38.59375 28 38.59375 
Q 31.703125 38.59375 33.390625 40.1875 
Q 35.09375 41.796875 35.09375 45.40625 
Q 35.09375 48.40625 33.4375 50.046875 
Q 31.796875 51.703125 28.90625 51.703125 
Q 25.796875 51.703125 23.640625 49.84375 
Q 21.5 48 21.203125 43.09375 
L 3.5 48.796875 
Q 4.296875 54.796875 8.046875 58.84375 
Q 11.796875 62.90625 17.546875 64.953125 
Q 23.296875 67 30.296875 67 
Q 42 67 48.390625 62.140625 
Q 54.796875 57.296875 54.796875 48.5 
Q 54.796875 44 53.296875 41.046875 
Q 51.796875 38.09375 49.640625 36.4375 
Q 47.5 34.796875 45.5 34.046875 
Q 43.5 33.296875 42.40625 33.296875 
L 42.40625 32.90625 
Q 43.59375 32.90625 45.84375 32.40625 
Q 48.09375 31.90625 50.4375 30.453125 
Q 52.796875 29 54.4375 26.296875 
Q 56.09375 23.59375 56.09375 19.09375 
Q 56.09375 12.796875 52.640625 8.296875 
Q 49.203125 3.796875 43.390625 1.390625 
Q 37.59375 -1 30.5 -1 
z
" id="WorkSans-ExtraBold-51"/>
      <path d="M 5.5 0 
L 5.5 12.59375 
Q 21.5 21.796875 28.75 29.75 
Q 36 37.703125 36 44 
Q 36 47.09375 34.296875 49.25 
Q 32.59375 51.40625 29 51.40625 
Q 20.703125 51.40625 20.796875 38.796875 
L 3.296875 43.5 
Q 3.296875 51.40625 6.84375 56.59375 
Q 10.40625 61.796875 16.546875 64.390625 
Q 22.703125 67 30.296875 67 
Q 37.40625 67 42.34375 65.046875 
Q 47.296875 63.09375 50.34375 59.890625 
Q 53.40625 56.703125 54.796875 52.953125 
Q 56.203125 49.203125 56.203125 45.59375 
Q 56.203125 39.09375 52.84375 33.6875 
Q 49.5 28.296875 43.453125 23.640625 
Q 37.40625 19 29.5 14.796875 
L 29.5 14.59375 
Q 32.296875 14.90625 36.296875 15 
Q 40.296875 15.09375 44.09375 15.09375 
L 56.796875 15.09375 
L 56.796875 0 
z
" id="WorkSans-ExtraBold-50"/>
     </defs>
     <use xlink:href="#WorkSans-ExtraBold-45"/>
     <use x="53.399994" xlink:href="#WorkSans-ExtraBold-51"/>
     <use x="113.099991" xlink:href="#WorkSans-ExtraBold-50"/>
     <use x="173.199982" xlink:href="#WorkSans-ExtraBold-46"/>
     <use x="203.099976" xlink:href="#WorkSans-ExtraBold-48"/>
     <use x="268.199966" xlink:href="#WorkSans-ExtraBold-37"/>
    </g>
   </g>
   <g id="line2d_12">
    <defs>
     <path d="M 0 114.515371 
C 30.369831 114.515371 59.499882 102.449309 80.974595 80.974595 
C 102.449309 59.499882 114.515371 30.369831 114.515371 0 
C 114.515371 -30.369831 102.449309 -59.499882 80.974595 -80.974595 
C 59.499882 -102.449309 30.369831 -114.515371 0 -114.515371 
C -30.369831 -114.515371 -59.499882 -102.449309 -80.974595 -80.974595 
C -102.449309 -59.499882 -114.515371 -30.369831 -114.515371 0 
C -114.515371 30.369831 -102.449309 59.499882 -80.974595 80.974595 
C -59.499882 102.449309 -30.369831 114.515371 0 114.515371 
z
" id="mf4113e5fe7" style="stroke:#000000;stroke-opacity:0.67;"/>
    </defs>
    <g clip-path="url(#p8dde068632)">
     <use style="fill-opacity:0.67;stroke:#000000;stroke-opacity:0.67;" x="396.443188" xlink:href="#mf4113e5fe7" y="213.038554"/>
    </g>
   </g>
   <g id="text_21">
    <!-- Uber -->
    <g style="opacity:0.7;" transform="translate(379.958188 345.025488)scale(0.14 -0.14)">
     <use xlink:href="#WorkSans-ExtraBold-85"/>
     <use x="71.099991" xlink:href="#WorkSans-ExtraBold-98"/>
     <use x="133.799988" xlink:href="#WorkSans-ExtraBold-101"/>
     <use x="191.799973" xlink:href="#WorkSans-ExtraBold-114"/>
    </g>
   </g>
   <g id="text_22">
    <!-- -60.0% -->
    <g style="fill:#ffffff;" transform="translate(311.218702 224.397048)scale(0.458061 -0.458061)">
     <use xlink:href="#WorkSans-ExtraBold-45"/>
     <use x="53.399994" xlink:href="#WorkSans-ExtraBold-54"/>
     <use x="115.299988" xlink:href="#WorkSans-ExtraBold-48"/>
     <use x="180.399979" xlink:href="#WorkSans-ExtraBold-46"/>
     <use x="210.299973" xlink:href="#WorkSans-ExtraBold-48"/>
     <use x="275.399963" xlink:href="#WorkSans-ExtraBold-37"/>
    </g>
   </g>
   <g id="line2d_13">
    <defs>
     <path d="M 0 125 
C 33.150388 125 64.947484 111.829211 88.388348 88.388348 
C 111.829211 64.947484 125 33.150388 125 0 
C 125 -33.150388 111.829211 -64.947484 88.388348 -88.388348 
C 64.947484 -111.829211 33.150388 -125 0 -125 
C -33.150388 -125 -64.947484 -111.829211 -88.388348 -88.388348 
C -111.829211 -64.947484 -125 -33.150388 -125 0 
C -125 33.150388 -111.829211 64.947484 -88.388348 88.388348 
C -64.947484 111.829211 -33.150388 125 0 125 
z
" id="m651d5fdd23" style="stroke:#ea0b8c;stroke-opacity:0.67;"/>
    </defs>
    <g clip-path="url(#p8dde068632)">
     <use style="fill:#ea0b8c;fill-opacity:0.67;stroke:#ea0b8c;stroke-opacity:0.67;" x="513.934071" xlink:href="#m651d5fdd23" y="433.754283"/>
    </g>
   </g>
   <g id="text_23">
    <!-- Lyft -->
    <g style="fill:#ea0b8c;opacity:0.7;" transform="translate(499.590633 298.310064)scale(0.14 -0.14)">
     <defs>
      <path d="M 26.5 15.296875 
L 57.90625 15.296875 
L 57.90625 0 
L 6.09375 0 
L 6.09375 66 
L 26.5 66 
z
" id="WorkSans-ExtraBold-76"/>
      <path d="M 58.5 50 
L 42.203125 3 
Q 39.09375 -6 35.390625 -11.390625 
Q 31.703125 -16.796875 26.59375 -19.140625 
Q 21.5 -21.5 14.203125 -21.5 
Q 9.703125 -21.5 6 -20.59375 
Q 2.296875 -19.703125 -0.40625 -18.203125 
L 3.40625 -5.09375 
Q 5.09375 -6.09375 7.046875 -6.59375 
Q 9 -7.09375 12.296875 -7.09375 
Q 15.40625 -7.09375 17.09375 -6.296875 
Q 18.796875 -5.5 19.59375 -3.40625 
L 20.296875 -1.5 
L 14.296875 12.703125 
L -0.296875 50 
L 21.796875 50 
L 27.796875 22.90625 
L 29.90625 11.796875 
L 32.40625 23.203125 
L 38.59375 50 
z
" id="WorkSans-ExtraBold-121"/>
     </defs>
     <use xlink:href="#WorkSans-ExtraBold-76"/>
     <use x="60.399994" xlink:href="#WorkSans-ExtraBold-121"/>
     <use x="118.299988" xlink:href="#WorkSans-ExtraBold-102"/>
     <use x="160.599976" xlink:href="#WorkSans-ExtraBold-116"/>
    </g>
   </g>
   <g id="text_24">
    <!-- -72.0% -->
    <g style="fill:#ffffff;" transform="translate(422.00829 446.15272)scale(0.5 -0.5)">
     <defs>
      <path d="M 3 66 
L 59.40625 66 
L 59.40625 52.09375 
Q 51.203125 44.296875 46.640625 36 
Q 42.09375 27.703125 40.25 18.75 
Q 38.40625 9.796875 38.40625 0 
L 18.40625 0 
Q 18.40625 14.59375 23.34375 26.84375 
Q 28.296875 39.09375 39.59375 50.40625 
L 3 50.40625 
z
" id="WorkSans-ExtraBold-55"/>
     </defs>
     <use xlink:href="#WorkSans-ExtraBold-45"/>
     <use x="53.399994" xlink:href="#WorkSans-ExtraBold-55"/>
     <use x="115.899979" xlink:href="#WorkSans-ExtraBold-50"/>
     <use x="175.999969" xlink:href="#WorkSans-ExtraBold-46"/>
     <use x="205.899963" xlink:href="#WorkSans-ExtraBold-48"/>
     <use x="270.999954" xlink:href="#WorkSans-ExtraBold-37"/>
    </g>
   </g>
  </g>
 </g>
 <defs>
  <clipPath id="p8dde068632">
   <rect height="489.24" width="489.24" x="121.952625" y="115.78"/>
  </clipPath>
 </defs>
</svg>
