<?xml version="1.0" encoding="utf-8" standalone="no"?>
<!DOCTYPE svg PUBLIC "-//W3C//DTD SVG 1.1//EN"
  "http://www.w3.org/Graphics/SVG/1.1/DTD/svg11.dtd">
<!-- Created with matplotlib (https://matplotlib.org/) -->
<svg height="706.13125pt" version="1.1" viewBox="0 0 701.26625 706.13125" width="701.26625pt" xmlns="http://www.w3.org/2000/svg" xmlns:xlink="http://www.w3.org/1999/xlink">
 <metadata>
  <rdf:RDF xmlns:cc="http://creativecommons.org/ns#" xmlns:dc="http://purl.org/dc/elements/1.1/" xmlns:rdf="http://www.w3.org/1999/02/22-rdf-syntax-ns#">
   <cc:Work>
    <dc:type rdf:resource="http://purl.org/dc/dcmitype/StillImage"/>
    <dc:date>2021-06-09T13:03:51.922113</dc:date>
    <dc:format>image/svg+xml</dc:format>
    <dc:creator>
     <cc:Agent>
      <dc:title>Matplotlib v3.3.3, https://matplotlib.org/</dc:title>
     </cc:Agent>
    </dc:creator>
   </cc:Work>
  </rdf:RDF>
 </metadata>
 <defs>
  <style type="text/css">*{stroke-linecap:butt;stroke-linejoin:round;}</style>
 </defs>
 <g id="figure_1">
  <g id="patch_1">
   <path d="M 0 706.13125 
L 701.26625 706.13125 
L 701.26625 0 
L 0 0 
z
" style="fill:none;"/>
  </g>
  <g id="axes_1">
   <g id="patch_2">
    <path d="M 132.084375 604.375 
L 621.324375 604.375 
L 621.324375 115.135 
L 132.084375 115.135 
z
" style="fill:none;"/>
   </g>
   <g id="matplotlib.axis_1">
    <g id="xtick_1">
     <g id="line2d_1"/>
     <g id="text_1">
      <!-- 01/01/21 -->
      <g style="fill:#002f6c;" transform="translate(118.766728 633.493125)scale(0.12 -0.12)">
       <defs>
        <path d="M 31.78125 66.40625 
Q 24.171875 66.40625 20.328125 58.90625 
Q 16.5 51.421875 16.5 36.375 
Q 16.5 21.390625 20.328125 13.890625 
Q 24.171875 6.390625 31.78125 6.390625 
Q 39.453125 6.390625 43.28125 13.890625 
Q 47.125 21.390625 47.125 36.375 
Q 47.125 51.421875 43.28125 58.90625 
Q 39.453125 66.40625 31.78125 66.40625 
z
M 31.78125 74.21875 
Q 44.046875 74.21875 50.515625 64.515625 
Q 56.984375 54.828125 56.984375 36.375 
Q 56.984375 17.96875 50.515625 8.265625 
Q 44.046875 -1.421875 31.78125 -1.421875 
Q 19.53125 -1.421875 13.0625 8.265625 
Q 6.59375 17.96875 6.59375 36.375 
Q 6.59375 54.828125 13.0625 64.515625 
Q 19.53125 74.21875 31.78125 74.21875 
z
" id="DejaVuSans-48"/>
        <path d="M 12.40625 8.296875 
L 28.515625 8.296875 
L 28.515625 63.921875 
L 10.984375 60.40625 
L 10.984375 69.390625 
L 28.421875 72.90625 
L 38.28125 72.90625 
L 38.28125 8.296875 
L 54.390625 8.296875 
L 54.390625 0 
L 12.40625 0 
z
" id="DejaVuSans-49"/>
        <path d="M 25.390625 72.90625 
L 33.6875 72.90625 
L 8.296875 -9.28125 
L 0 -9.28125 
z
" id="DejaVuSans-47"/>
        <path d="M 19.1875 8.296875 
L 53.609375 8.296875 
L 53.609375 0 
L 7.328125 0 
L 7.328125 8.296875 
Q 12.9375 14.109375 22.625 23.890625 
Q 32.328125 33.6875 34.8125 36.53125 
Q 39.546875 41.84375 41.421875 45.53125 
Q 43.3125 49.21875 43.3125 52.78125 
Q 43.3125 58.59375 39.234375 62.25 
Q 35.15625 65.921875 28.609375 65.921875 
Q 23.96875 65.921875 18.8125 64.3125 
Q 13.671875 62.703125 7.8125 59.421875 
L 7.8125 69.390625 
Q 13.765625 71.78125 18.9375 73 
Q 24.125 74.21875 28.421875 74.21875 
Q 39.75 74.21875 46.484375 68.546875 
Q 53.21875 62.890625 53.21875 53.421875 
Q 53.21875 48.921875 51.53125 44.890625 
Q 49.859375 40.875 45.40625 35.40625 
Q 44.1875 33.984375 37.640625 27.21875 
Q 31.109375 20.453125 19.1875 8.296875 
z
" id="DejaVuSans-50"/>
       </defs>
       <use xlink:href="#DejaVuSans-48"/>
       <use x="63.623047" xlink:href="#DejaVuSans-49"/>
       <use x="127.246094" xlink:href="#DejaVuSans-47"/>
       <use x="160.9375" xlink:href="#DejaVuSans-48"/>
       <use x="224.560547" xlink:href="#DejaVuSans-49"/>
       <use x="288.183594" xlink:href="#DejaVuSans-47"/>
       <use x="321.875" xlink:href="#DejaVuSans-50"/>
       <use x="385.498047" xlink:href="#DejaVuSans-49"/>
      </g>
     </g>
    </g>
    <g id="xtick_2">
     <g id="line2d_2"/>
     <g id="text_2">
      <!-- 02/01/21 -->
      <g style="fill:#002f6c;" transform="translate(207.719456 633.493125)scale(0.12 -0.12)">
       <use xlink:href="#DejaVuSans-48"/>
       <use x="63.623047" xlink:href="#DejaVuSans-50"/>
       <use x="127.246094" xlink:href="#DejaVuSans-47"/>
       <use x="160.9375" xlink:href="#DejaVuSans-48"/>
       <use x="224.560547" xlink:href="#DejaVuSans-49"/>
       <use x="288.183594" xlink:href="#DejaVuSans-47"/>
       <use x="321.875" xlink:href="#DejaVuSans-50"/>
       <use x="385.498047" xlink:href="#DejaVuSans-49"/>
      </g>
     </g>
    </g>
    <g id="xtick_3">
     <g id="line2d_3"/>
     <g id="text_3">
      <!-- 03/01/21 -->
      <g style="fill:#002f6c;" transform="translate(288.063854 633.493125)scale(0.12 -0.12)">
       <defs>
        <path d="M 40.578125 39.3125 
Q 47.65625 37.796875 51.625 33 
Q 55.609375 28.21875 55.609375 21.1875 
Q 55.609375 10.40625 48.1875 4.484375 
Q 40.765625 -1.421875 27.09375 -1.421875 
Q 22.515625 -1.421875 17.65625 -0.515625 
Q 12.796875 0.390625 7.625 2.203125 
L 7.625 11.71875 
Q 11.71875 9.328125 16.59375 8.109375 
Q 21.484375 6.890625 26.8125 6.890625 
Q 36.078125 6.890625 40.9375 10.546875 
Q 45.796875 14.203125 45.796875 21.1875 
Q 45.796875 27.640625 41.28125 31.265625 
Q 36.765625 34.90625 28.71875 34.90625 
L 20.21875 34.90625 
L 20.21875 43.015625 
L 29.109375 43.015625 
Q 36.375 43.015625 40.234375 45.921875 
Q 44.09375 48.828125 44.09375 54.296875 
Q 44.09375 59.90625 40.109375 62.90625 
Q 36.140625 65.921875 28.71875 65.921875 
Q 24.65625 65.921875 20.015625 65.03125 
Q 15.375 64.15625 9.8125 62.3125 
L 9.8125 71.09375 
Q 15.4375 72.65625 20.34375 73.4375 
Q 25.25 74.21875 29.59375 74.21875 
Q 40.828125 74.21875 47.359375 69.109375 
Q 53.90625 64.015625 53.90625 55.328125 
Q 53.90625 49.265625 50.4375 45.09375 
Q 46.96875 40.921875 40.578125 39.3125 
z
" id="DejaVuSans-51"/>
       </defs>
       <use xlink:href="#DejaVuSans-48"/>
       <use x="63.623047" xlink:href="#DejaVuSans-51"/>
       <use x="127.246094" xlink:href="#DejaVuSans-47"/>
       <use x="160.9375" xlink:href="#DejaVuSans-48"/>
       <use x="224.560547" xlink:href="#DejaVuSans-49"/>
       <use x="288.183594" xlink:href="#DejaVuSans-47"/>
       <use x="321.875" xlink:href="#DejaVuSans-50"/>
       <use x="385.498047" xlink:href="#DejaVuSans-49"/>
      </g>
     </g>
    </g>
    <g id="xtick_4">
     <g id="line2d_4"/>
     <g id="text_4">
      <!-- 04/01/21 -->
      <g style="fill:#002f6c;" transform="translate(377.016582 633.493125)scale(0.12 -0.12)">
       <defs>
        <path d="M 37.796875 64.3125 
L 12.890625 25.390625 
L 37.796875 25.390625 
z
M 35.203125 72.90625 
L 47.609375 72.90625 
L 47.609375 25.390625 
L 58.015625 25.390625 
L 58.015625 17.1875 
L 47.609375 17.1875 
L 47.609375 0 
L 37.796875 0 
L 37.796875 17.1875 
L 4.890625 17.1875 
L 4.890625 26.703125 
z
" id="DejaVuSans-52"/>
       </defs>
       <use xlink:href="#DejaVuSans-48"/>
       <use x="63.623047" xlink:href="#DejaVuSans-52"/>
       <use x="127.246094" xlink:href="#DejaVuSans-47"/>
       <use x="160.9375" xlink:href="#DejaVuSans-48"/>
       <use x="224.560547" xlink:href="#DejaVuSans-49"/>
       <use x="288.183594" xlink:href="#DejaVuSans-47"/>
       <use x="321.875" xlink:href="#DejaVuSans-50"/>
       <use x="385.498047" xlink:href="#DejaVuSans-49"/>
      </g>
     </g>
    </g>
    <g id="xtick_5">
     <g id="line2d_5"/>
     <g id="text_5">
      <!-- 05/01/21 -->
      <g style="fill:#002f6c;" transform="translate(463.099866 633.493125)scale(0.12 -0.12)">
       <defs>
        <path d="M 10.796875 72.90625 
L 49.515625 72.90625 
L 49.515625 64.59375 
L 19.828125 64.59375 
L 19.828125 46.734375 
Q 21.96875 47.46875 24.109375 47.828125 
Q 26.265625 48.1875 28.421875 48.1875 
Q 40.625 48.1875 47.75 41.5 
Q 54.890625 34.8125 54.890625 23.390625 
Q 54.890625 11.625 47.5625 5.09375 
Q 40.234375 -1.421875 26.90625 -1.421875 
Q 22.3125 -1.421875 17.546875 -0.640625 
Q 12.796875 0.140625 7.71875 1.703125 
L 7.71875 11.625 
Q 12.109375 9.234375 16.796875 8.0625 
Q 21.484375 6.890625 26.703125 6.890625 
Q 35.15625 6.890625 40.078125 11.328125 
Q 45.015625 15.765625 45.015625 23.390625 
Q 45.015625 31 40.078125 35.4375 
Q 35.15625 39.890625 26.703125 39.890625 
Q 22.75 39.890625 18.8125 39.015625 
Q 14.890625 38.140625 10.796875 36.28125 
z
" id="DejaVuSans-53"/>
       </defs>
       <use xlink:href="#DejaVuSans-48"/>
       <use x="63.623047" xlink:href="#DejaVuSans-53"/>
       <use x="127.246094" xlink:href="#DejaVuSans-47"/>
       <use x="160.9375" xlink:href="#DejaVuSans-48"/>
       <use x="224.560547" xlink:href="#DejaVuSans-49"/>
       <use x="288.183594" xlink:href="#DejaVuSans-47"/>
       <use x="321.875" xlink:href="#DejaVuSans-50"/>
       <use x="385.498047" xlink:href="#DejaVuSans-49"/>
      </g>
     </g>
    </g>
    <g id="xtick_6">
     <g id="line2d_6"/>
     <g id="text_6">
      <!-- 06/01/21 -->
      <g style="fill:#002f6c;" transform="translate(552.052593 633.493125)scale(0.12 -0.12)">
       <defs>
        <path d="M 33.015625 40.375 
Q 26.375 40.375 22.484375 35.828125 
Q 18.609375 31.296875 18.609375 23.390625 
Q 18.609375 15.53125 22.484375 10.953125 
Q 26.375 6.390625 33.015625 6.390625 
Q 39.65625 6.390625 43.53125 10.953125 
Q 47.40625 15.53125 47.40625 23.390625 
Q 47.40625 31.296875 43.53125 35.828125 
Q 39.65625 40.375 33.015625 40.375 
z
M 52.59375 71.296875 
L 52.59375 62.3125 
Q 48.875 64.0625 45.09375 64.984375 
Q 41.3125 65.921875 37.59375 65.921875 
Q 27.828125 65.921875 22.671875 59.328125 
Q 17.53125 52.734375 16.796875 39.40625 
Q 19.671875 43.65625 24.015625 45.921875 
Q 28.375 48.1875 33.59375 48.1875 
Q 44.578125 48.1875 50.953125 41.515625 
Q 57.328125 34.859375 57.328125 23.390625 
Q 57.328125 12.15625 50.6875 5.359375 
Q 44.046875 -1.421875 33.015625 -1.421875 
Q 20.359375 -1.421875 13.671875 8.265625 
Q 6.984375 17.96875 6.984375 36.375 
Q 6.984375 53.65625 15.1875 63.9375 
Q 23.390625 74.21875 37.203125 74.21875 
Q 40.921875 74.21875 44.703125 73.484375 
Q 48.484375 72.75 52.59375 71.296875 
z
" id="DejaVuSans-54"/>
       </defs>
       <use xlink:href="#DejaVuSans-48"/>
       <use x="63.623047" xlink:href="#DejaVuSans-54"/>
       <use x="127.246094" xlink:href="#DejaVuSans-47"/>
       <use x="160.9375" xlink:href="#DejaVuSans-48"/>
       <use x="224.560547" xlink:href="#DejaVuSans-49"/>
       <use x="288.183594" xlink:href="#DejaVuSans-47"/>
       <use x="321.875" xlink:href="#DejaVuSans-50"/>
       <use x="385.498047" xlink:href="#DejaVuSans-49"/>
      </g>
     </g>
    </g>
    <g id="text_7">
     <!--  -->
     <g style="fill:#002f6c;" transform="translate(376.704375 651.87625)scale(0.16 -0.16)"/>
     <!-- Date -->
     <g style="fill:#002f6c;" transform="translate(358.429375 668.71625)scale(0.16 -0.16)">
      <defs>
       <path d="M 8.09375 72.296875 
Q 8.65625 72.296875 11.171875 72.296875 
Q 13.703125 72.296875 17.125 72.296875 
Q 20.546875 72.296875 23.96875 72.265625 
Q 27.40625 72.25 29.703125 72.203125 
Q 42.84375 71.90625 51.125 67.5 
Q 59.40625 63.09375 63.296875 55.1875 
Q 67.203125 47.296875 67.203125 36.5 
Q 67.203125 25.25 63.09375 17.078125 
Q 59 8.90625 50.578125 4.453125 
Q 42.15625 0 29.203125 0 
L 8.09375 0 
z
M 22.796875 60.5 
L 22.796875 11.796875 
L 29.5 11.796875 
Q 35.703125 11.796875 40.765625 14.1875 
Q 45.84375 16.59375 48.890625 22.046875 
Q 51.953125 27.5 51.953125 36.59375 
Q 51.953125 49.25 45.96875 54.875 
Q 40 60.5 29.703125 60.5 
z
" id="PublicSans-Bold-68"/>
       <path d="M 21.25 -1 
Q 13.796875 -1 8.796875 3.09375 
Q 3.796875 7.203125 3.796875 14.796875 
Q 3.796875 23.296875 10.125 27.71875 
Q 16.453125 32.15625 30.203125 32.296875 
L 36.65625 32.40625 
L 36.65625 35.5 
Q 36.65625 39.046875 34.578125 40.96875 
Q 32.5 42.90625 28.15625 42.84375 
Q 24.953125 42.796875 22.078125 41.34375 
Q 19.203125 39.90625 18.15625 36.296875 
L 6 36.296875 
Q 6.40625 44.703125 12.75 48.703125 
Q 19.09375 52.703125 28.796875 52.703125 
Q 40.703125 52.703125 45.671875 48.328125 
Q 50.65625 43.953125 50.65625 36.34375 
L 50.65625 0 
L 38.453125 0 
L 37.25 8.90625 
Q 34.59375 3.296875 30.625 1.140625 
Q 26.65625 -1 21.25 -1 
z
M 26.15625 8.59375 
Q 28.796875 8.59375 31.1875 9.8125 
Q 33.59375 11.046875 35.125 13.015625 
Q 36.65625 15 36.65625 17.25 
L 36.65625 24.90625 
L 31.40625 24.796875 
Q 27.75 24.75 24.59375 23.953125 
Q 21.453125 23.15625 19.515625 21.28125 
Q 17.59375 19.40625 17.59375 16.25 
Q 17.59375 12.65625 20.0625 10.625 
Q 22.546875 8.59375 26.15625 8.59375 
z
" id="PublicSans-Bold-97"/>
       <path d="M 37.75 41.546875 
L 26.25 41.546875 
L 26.34375 14 
Q 26.34375 11.15625 27.4375 10.421875 
Q 28.546875 9.703125 30.953125 9.703125 
L 37.90625 9.703125 
L 37.90625 0.703125 
Q 36.84375 0.25 34.75 -0.140625 
Q 32.65625 -0.546875 28.84375 -0.546875 
Q 22.046875 -0.546875 18.3125 1.203125 
Q 14.59375 2.953125 13.140625 6.09375 
Q 11.703125 9.25 11.703125 13.40625 
L 11.703125 41.546875 
L 3.296875 41.546875 
L 3.296875 51.703125 
L 12.203125 51.703125 
L 15.84375 67.296875 
L 26.25 67.296875 
L 26.25 51.75 
L 37.75 51.75 
z
" id="PublicSans-Bold-116"/>
       <path d="M 18.25 22.5 
Q 18.203125 16.546875 21.09375 13.046875 
Q 24 9.546875 29.25 9.546875 
Q 33 9.546875 35.828125 11.140625 
Q 38.65625 12.75 39.75 16.40625 
L 52.90625 16.40625 
Q 52.046875 10.90625 48.515625 7 
Q 45 3.09375 40 1.046875 
Q 35 -1 29.59375 -1 
Q 21.90625 -1 16.09375 2.21875 
Q 10.296875 5.453125 7.046875 11.34375 
Q 3.796875 17.25 3.796875 25.25 
Q 3.796875 33 6.75 39.21875 
Q 9.703125 45.453125 15.328125 49.078125 
Q 20.953125 52.703125 28.84375 52.703125 
Q 36.75 52.703125 42.125 49.375 
Q 47.5 46.046875 50.21875 40.125 
Q 52.953125 34.203125 52.953125 26.453125 
L 52.953125 22.5 
z
M 18.203125 31.203125 
L 39.296875 31.203125 
Q 39.296875 35.90625 36.6875 39.203125 
Q 34.09375 42.5 28.84375 42.5 
Q 25.453125 42.5 23.078125 40.84375 
Q 20.703125 39.203125 19.453125 36.625 
Q 18.203125 34.046875 18.203125 31.203125 
z
" id="PublicSans-Bold-101"/>
      </defs>
      <use xlink:href="#PublicSans-Bold-68"/>
      <use x="72.000015" xlink:href="#PublicSans-Bold-97"/>
      <use x="129.350021" xlink:href="#PublicSans-Bold-116"/>
      <use x="171.600021" xlink:href="#PublicSans-Bold-101"/>
     </g>
     <!--  -->
     <g style="fill:#002f6c;" transform="translate(376.704375 685.55625)scale(0.16 -0.16)"/>
    </g>
   </g>
   <g id="matplotlib.axis_2">
    <g id="ytick_1">
     <g id="line2d_7"/>
     <g id="text_8">
      <!-- 0% -->
      <g style="fill:#002f6c;" transform="translate(93.0475 586.475592)scale(0.12 -0.12)">
       <defs>
        <path d="M 72.703125 32.078125 
Q 68.453125 32.078125 66.03125 28.46875 
Q 63.625 24.859375 63.625 18.40625 
Q 63.625 12.0625 66.03125 8.421875 
Q 68.453125 4.78125 72.703125 4.78125 
Q 76.859375 4.78125 79.265625 8.421875 
Q 81.6875 12.0625 81.6875 18.40625 
Q 81.6875 24.8125 79.265625 28.4375 
Q 76.859375 32.078125 72.703125 32.078125 
z
M 72.703125 38.28125 
Q 80.421875 38.28125 84.953125 32.90625 
Q 89.5 27.546875 89.5 18.40625 
Q 89.5 9.28125 84.9375 3.921875 
Q 80.375 -1.421875 72.703125 -1.421875 
Q 64.890625 -1.421875 60.34375 3.921875 
Q 55.8125 9.28125 55.8125 18.40625 
Q 55.8125 27.59375 60.375 32.9375 
Q 64.9375 38.28125 72.703125 38.28125 
z
M 22.3125 68.015625 
Q 18.109375 68.015625 15.6875 64.375 
Q 13.28125 60.75 13.28125 54.390625 
Q 13.28125 47.953125 15.671875 44.328125 
Q 18.0625 40.71875 22.3125 40.71875 
Q 26.5625 40.71875 28.96875 44.328125 
Q 31.390625 47.953125 31.390625 54.390625 
Q 31.390625 60.6875 28.953125 64.34375 
Q 26.515625 68.015625 22.3125 68.015625 
z
M 66.40625 74.21875 
L 74.21875 74.21875 
L 28.609375 -1.421875 
L 20.796875 -1.421875 
z
M 22.3125 74.21875 
Q 30.03125 74.21875 34.609375 68.875 
Q 39.203125 63.53125 39.203125 54.390625 
Q 39.203125 45.171875 34.640625 39.84375 
Q 30.078125 34.515625 22.3125 34.515625 
Q 14.546875 34.515625 10.03125 39.859375 
Q 5.515625 45.21875 5.515625 54.390625 
Q 5.515625 63.484375 10.046875 68.84375 
Q 14.59375 74.21875 22.3125 74.21875 
z
" id="DejaVuSans-37"/>
       </defs>
       <use xlink:href="#DejaVuSans-48"/>
       <use x="63.623047" xlink:href="#DejaVuSans-37"/>
      </g>
     </g>
     <g id="text_9">
      <!-- 0% -->
      <g style="fill:#002f6c;" transform="translate(641.324375 586.475592)scale(0.12 -0.12)">
       <use xlink:href="#DejaVuSans-48"/>
       <use x="63.623047" xlink:href="#DejaVuSans-37"/>
      </g>
     </g>
    </g>
    <g id="ytick_2">
     <g id="line2d_8"/>
     <g id="text_10">
      <!-- 500% -->
      <g style="fill:#002f6c;" transform="translate(77.7775 512.678752)scale(0.12 -0.12)">
       <use xlink:href="#DejaVuSans-53"/>
       <use x="63.623047" xlink:href="#DejaVuSans-48"/>
       <use x="127.246094" xlink:href="#DejaVuSans-48"/>
       <use x="190.869141" xlink:href="#DejaVuSans-37"/>
      </g>
     </g>
     <g id="text_11">
      <!-- 500% -->
      <g style="fill:#002f6c;" transform="translate(641.324375 512.678752)scale(0.12 -0.12)">
       <use xlink:href="#DejaVuSans-53"/>
       <use x="63.623047" xlink:href="#DejaVuSans-48"/>
       <use x="127.246094" xlink:href="#DejaVuSans-48"/>
       <use x="190.869141" xlink:href="#DejaVuSans-37"/>
      </g>
     </g>
    </g>
    <g id="ytick_3">
     <g id="line2d_9"/>
     <g id="text_12">
      <!-- 1000% -->
      <g style="fill:#002f6c;" transform="translate(70.1425 438.881912)scale(0.12 -0.12)">
       <use xlink:href="#DejaVuSans-49"/>
       <use x="63.623047" xlink:href="#DejaVuSans-48"/>
       <use x="127.246094" xlink:href="#DejaVuSans-48"/>
       <use x="190.869141" xlink:href="#DejaVuSans-48"/>
       <use x="254.492188" xlink:href="#DejaVuSans-37"/>
      </g>
     </g>
     <g id="text_13">
      <!-- 1000% -->
      <g style="fill:#002f6c;" transform="translate(641.324375 438.881912)scale(0.12 -0.12)">
       <use xlink:href="#DejaVuSans-49"/>
       <use x="63.623047" xlink:href="#DejaVuSans-48"/>
       <use x="127.246094" xlink:href="#DejaVuSans-48"/>
       <use x="190.869141" xlink:href="#DejaVuSans-48"/>
       <use x="254.492188" xlink:href="#DejaVuSans-37"/>
      </g>
     </g>
    </g>
    <g id="ytick_4">
     <g id="line2d_10"/>
     <g id="text_14">
      <!-- 1500% -->
      <g style="fill:#002f6c;" transform="translate(70.1425 365.085073)scale(0.12 -0.12)">
       <use xlink:href="#DejaVuSans-49"/>
       <use x="63.623047" xlink:href="#DejaVuSans-53"/>
       <use x="127.246094" xlink:href="#DejaVuSans-48"/>
       <use x="190.869141" xlink:href="#DejaVuSans-48"/>
       <use x="254.492188" xlink:href="#DejaVuSans-37"/>
      </g>
     </g>
     <g id="text_15">
      <!-- 1500% -->
      <g style="fill:#002f6c;" transform="translate(641.324375 365.085073)scale(0.12 -0.12)">
       <use xlink:href="#DejaVuSans-49"/>
       <use x="63.623047" xlink:href="#DejaVuSans-53"/>
       <use x="127.246094" xlink:href="#DejaVuSans-48"/>
       <use x="190.869141" xlink:href="#DejaVuSans-48"/>
       <use x="254.492188" xlink:href="#DejaVuSans-37"/>
      </g>
     </g>
    </g>
    <g id="ytick_5">
     <g id="line2d_11"/>
     <g id="text_16">
      <!-- 2000% -->
      <g style="fill:#002f6c;" transform="translate(70.1425 291.288233)scale(0.12 -0.12)">
       <use xlink:href="#DejaVuSans-50"/>
       <use x="63.623047" xlink:href="#DejaVuSans-48"/>
       <use x="127.246094" xlink:href="#DejaVuSans-48"/>
       <use x="190.869141" xlink:href="#DejaVuSans-48"/>
       <use x="254.492188" xlink:href="#DejaVuSans-37"/>
      </g>
     </g>
     <g id="text_17">
      <!-- 2000% -->
      <g style="fill:#002f6c;" transform="translate(641.324375 291.288233)scale(0.12 -0.12)">
       <use xlink:href="#DejaVuSans-50"/>
       <use x="63.623047" xlink:href="#DejaVuSans-48"/>
       <use x="127.246094" xlink:href="#DejaVuSans-48"/>
       <use x="190.869141" xlink:href="#DejaVuSans-48"/>
       <use x="254.492188" xlink:href="#DejaVuSans-37"/>
      </g>
     </g>
    </g>
    <g id="ytick_6">
     <g id="line2d_12"/>
     <g id="text_18">
      <!-- 2500% -->
      <g style="fill:#002f6c;" transform="translate(70.1425 217.491393)scale(0.12 -0.12)">
       <use xlink:href="#DejaVuSans-50"/>
       <use x="63.623047" xlink:href="#DejaVuSans-53"/>
       <use x="127.246094" xlink:href="#DejaVuSans-48"/>
       <use x="190.869141" xlink:href="#DejaVuSans-48"/>
       <use x="254.492188" xlink:href="#DejaVuSans-37"/>
      </g>
     </g>
     <g id="text_19">
      <!-- 2500% -->
      <g style="fill:#002f6c;" transform="translate(641.324375 217.491393)scale(0.12 -0.12)">
       <use xlink:href="#DejaVuSans-50"/>
       <use x="63.623047" xlink:href="#DejaVuSans-53"/>
       <use x="127.246094" xlink:href="#DejaVuSans-48"/>
       <use x="190.869141" xlink:href="#DejaVuSans-48"/>
       <use x="254.492188" xlink:href="#DejaVuSans-37"/>
      </g>
     </g>
    </g>
    <g id="ytick_7">
     <g id="line2d_13"/>
     <g id="text_20">
      <!-- 3000% -->
      <g style="fill:#002f6c;" transform="translate(70.1425 143.694553)scale(0.12 -0.12)">
       <use xlink:href="#DejaVuSans-51"/>
       <use x="63.623047" xlink:href="#DejaVuSans-48"/>
       <use x="127.246094" xlink:href="#DejaVuSans-48"/>
       <use x="190.869141" xlink:href="#DejaVuSans-48"/>
       <use x="254.492188" xlink:href="#DejaVuSans-37"/>
      </g>
     </g>
     <g id="text_21">
      <!-- 3000% -->
      <g style="fill:#002f6c;" transform="translate(641.324375 143.694553)scale(0.12 -0.12)">
       <use xlink:href="#DejaVuSans-51"/>
       <use x="63.623047" xlink:href="#DejaVuSans-48"/>
       <use x="127.246094" xlink:href="#DejaVuSans-48"/>
       <use x="190.869141" xlink:href="#DejaVuSans-48"/>
       <use x="254.492188" xlink:href="#DejaVuSans-37"/>
      </g>
     </g>
    </g>
    <g id="text_22">
     <!--  -->
     <g style="fill:#002f6c;" transform="translate(29.8875 359.755)rotate(-90)scale(0.16 -0.16)"/>
     <!-- Return -->
     <g style="fill:#002f6c;" transform="translate(46.7275 385.95375)rotate(-90)scale(0.16 -0.16)">
      <defs>
       <path d="M 64.203125 0 
L 49.046875 0 
L 37.296875 27.84375 
L 22.65625 27.84375 
L 22.65625 0 
L 8.09375 0 
L 8.09375 72.296875 
L 38.59375 72.296875 
Q 47.25 72.296875 52.75 69.546875 
Q 58.25 66.796875 60.84375 61.921875 
Q 63.453125 57.046875 63.453125 50.703125 
Q 63.453125 45 61.703125 41.078125 
Q 59.953125 37.15625 57.046875 34.546875 
Q 54.15625 31.953125 50.75 30.296875 
z
M 36 39.09375 
Q 41.84375 39.09375 45.265625 42.21875 
Q 48.703125 45.34375 48.703125 50.34375 
Q 48.703125 55.296875 45.390625 58.21875 
Q 42.09375 61.15625 37.046875 61.15625 
L 22.65625 61.15625 
L 22.65625 39.09375 
z
" id="PublicSans-Bold-82"/>
       <path d="M 25.296875 -1 
Q 20.546875 -1 16.015625 0.953125 
Q 11.5 2.90625 8.546875 6.671875 
Q 5.59375 10.453125 5.59375 15.953125 
L 5.59375 51.703125 
L 20.203125 51.703125 
L 20.203125 17.796875 
Q 20.203125 14.203125 22.546875 11.890625 
Q 24.90625 9.59375 29.453125 9.59375 
Q 33.703125 9.59375 36.25 11.8125 
Q 38.796875 14.046875 38.796875 18.046875 
L 38.796875 51.703125 
L 53.25 51.703125 
L 53.25 0 
L 42.25 0 
L 40.546875 10.25 
Q 39.65625 5.703125 37.171875 3.265625 
Q 34.703125 0.84375 31.515625 -0.078125 
Q 28.34375 -1 25.296875 -1 
z
" id="PublicSans-Bold-117"/>
       <path d="M 6.25 0 
L 6.25 51.703125 
L 20.296875 51.703125 
L 20.296875 39.453125 
Q 22.15625 45.40625 26.34375 49.046875 
Q 30.546875 52.703125 36.703125 52.703125 
Q 38.34375 52.703125 38.953125 52.40625 
L 38.953125 38.5 
Q 38.5 38.65625 37.875 38.71875 
Q 37.25 38.796875 36.75 38.84375 
Q 28.09375 39.59375 24.46875 36.546875 
Q 20.84375 33.5 20.84375 28.296875 
L 20.84375 0 
z
" id="PublicSans-Bold-114"/>
       <path d="M 6.25 0 
L 6.25 51.703125 
L 20.59375 51.703125 
L 20.59375 44.40625 
Q 22.40625 47.203125 25.953125 49.671875 
Q 29.5 52.15625 35.59375 52.15625 
Q 40.34375 52.15625 44.46875 50.296875 
Q 48.59375 48.453125 51.140625 44.46875 
Q 53.703125 40.5 53.703125 34.09375 
L 53.703125 0 
L 39.09375 0 
L 39.09375 32.296875 
Q 39.09375 36.5 36.5625 38.59375 
Q 34.046875 40.703125 30.5 40.703125 
Q 26.90625 40.703125 23.875 38.796875 
Q 20.84375 36.90625 20.84375 33.09375 
L 20.84375 0 
z
" id="PublicSans-Bold-110"/>
      </defs>
      <use xlink:href="#PublicSans-Bold-82"/>
      <use x="69.600006" xlink:href="#PublicSans-Bold-101"/>
      <use x="126.450012" xlink:href="#PublicSans-Bold-116"/>
      <use x="168.700012" xlink:href="#PublicSans-Bold-117"/>
      <use x="227.550018" xlink:href="#PublicSans-Bold-114"/>
      <use x="268.200027" xlink:href="#PublicSans-Bold-110"/>
     </g>
     <!--  -->
     <g style="fill:#002f6c;" transform="translate(63.5675 359.755)rotate(-90)scale(0.16 -0.16)"/>
    </g>
   </g>
   <g id="patch_3">
    <path d="M 132.084375 604.375 
L 132.084375 115.135 
" style="fill:none;stroke:#f0f0f0;stroke-linecap:square;stroke-linejoin:miter;stroke-width:3;"/>
   </g>
   <g id="patch_4">
    <path d="M 621.324375 604.375 
L 621.324375 115.135 
" style="fill:none;stroke:#f0f0f0;stroke-linecap:square;stroke-linejoin:miter;stroke-width:3;"/>
   </g>
   <g id="patch_5">
    <path d="M 132.084375 604.375 
L 621.324375 604.375 
" style="fill:none;stroke:#f0f0f0;stroke-linecap:square;stroke-linejoin:miter;stroke-width:3;"/>
   </g>
   <g id="patch_6">
    <path d="M 132.084375 115.135 
L 621.324375 115.135 
" style="fill:none;stroke:#f0f0f0;stroke-linecap:square;stroke-linejoin:miter;stroke-width:3;"/>
   </g>
   <g id="line2d_14">
    <path clip-path="url(#p230ae7d43f)" d="M 154.322557 581.916529 
L 157.192 581.813855 
L 160.061442 580.966796 
L 162.930885 581.206368 
L 165.800328 581.540058 
L 174.408657 579.614923 
L 177.278099 579.606367 
L 180.147542 569.80957 
L 183.016985 562.528281 
L 185.886428 566.301546 
L 197.364199 562.998869 
L 200.233642 563.204219 
L 203.103085 559.858762 
L 205.972527 541.05233 
L 214.580856 530.97318 
L 217.450299 470.061914 
L 220.319742 299.340935 
L 223.189184 431.028725 
L 226.058627 318.600849 
L 234.666956 404.162402 
L 237.536398 519.670499 
L 240.405841 517.608463 
L 243.275284 550.900466 
L 246.144727 542.113294 
L 254.753055 545.338965 
L 257.622498 553.629879 
L 260.491941 552.868381 
L 263.361384 552.953945 
L 266.230827 551.841642 
L 277.708598 554.314374 
L 280.578041 557.368921 
L 283.447484 561.860902 
L 286.316926 561.946463 
L 294.925255 557.317583 
L 297.794698 558.198866 
L 300.66414 518.207398 
L 303.533583 503.644817 
L 306.403026 509.625575 
L 315.011354 493.659786 
L 317.880797 495.559253 
L 320.75024 490.42556 
L 323.619683 483.435176 
L 326.489126 478.823409 
L 335.097454 430.258676 
L 337.966897 385.424427 
L 340.83634 369.937781 
L 343.705783 374.215859 
L 346.575225 370.365589 
L 355.183554 408.320694 
L 358.052997 418.562413 
L 360.92244 417.159204 
L 363.791882 424.055463 
L 366.661325 425.321771 
L 375.269654 430.267228 
L 378.139096 441.167774 
L 381.008539 493.711127 
L 383.877982 439.456543 
L 386.747425 441.809486 
L 395.355753 441.552799 
L 398.225196 430.292895 
L 401.094639 434.262951 
L 403.964082 432.868306 
L 415.441853 436.718576 
L 418.311296 438.814831 
L 421.180739 444.402 
L 424.050181 450.998801 
L 426.919624 461.180621 
L 435.527953 475.957105 
L 438.397396 476.042659 
L 441.266838 454.190244 
L 444.136281 462.823401 
L 447.005724 464.320728 
L 455.614052 456.038376 
L 458.483495 461.035168 
L 461.352938 461.052284 
L 464.222381 467.332499 
L 467.091824 467.323947 
L 475.700152 452.136772 
L 478.569595 444.57312 
L 481.439038 443.880074 
L 484.308481 445.924994 
L 487.177923 448.1496 
L 495.786252 457.89506 
L 498.655695 459.152816 
L 501.525137 460.222336 
L 504.39458 458.913245 
L 507.264023 458.827678 
L 515.872352 474.13464 
L 518.741794 470.968865 
L 521.611237 472.79133 
L 524.48068 455.927142 
L 527.350123 459.845863 
L 535.958451 442.151727 
L 538.827894 442.09184 
L 541.697337 452.222325 
L 544.56678 450.802 
L 547.436223 445.411633 
L 556.044551 442.65655 
L 558.913994 417.484342 
L 561.783437 389.137796 
L 564.652879 379.238318 
L 567.522322 406.729249 
L 579.000093 383.610514 
L 581.869536 355.186978 
L 584.738979 375.773085 
L 587.608422 384.175223 
L 596.21675 357.094984 
L 599.086193 339.991237 
" style="fill:none;stroke:#000000;stroke-opacity:0.5;stroke-width:4;"/>
   </g>
   <g id="text_23">
    <!--  -->
    <g style="fill:#002f6c;" transform="translate(376.704375 41.775)scale(0.32 -0.32)"/>
    <!-- Return Profiles of GameStop and AMC -->
    <g style="fill:#002f6c;" transform="translate(82.101875 75.455)scale(0.32 -0.32)">
     <defs>
      <path d="M 65.5 0 
L 48 0 
L 36.84375 26.40625 
L 24.453125 26.40625 
L 24.453125 0 
L 7.40625 0 
L 7.40625 72.296875 
L 39.046875 72.296875 
Q 48.09375 72.296875 53.6875 69.375 
Q 59.296875 66.453125 61.890625 61.375 
Q 64.5 56.296875 64.5 49.84375 
Q 64.5 41.40625 61 36.671875 
Q 57.5 31.953125 52.453125 29.15625 
z
M 36.703125 39.25 
Q 41.5 39.25 44.421875 42.265625 
Q 47.34375 45.296875 47.34375 49.546875 
Q 47.34375 53.953125 44.34375 56.75 
Q 41.34375 59.546875 37.203125 59.546875 
L 24.453125 59.546875 
L 24.453125 39.25 
z
" id="PublicSans-ExtraBold-82"/>
      <path d="M 20.046875 21.953125 
Q 20 16.65625 22.546875 13.84375 
Q 25.09375 11.046875 29.296875 11.046875 
Q 32.5 11.046875 34.96875 12.375 
Q 37.453125 13.703125 38.59375 17 
L 53.796875 17 
Q 52.953125 11.34375 49.328125 7.3125 
Q 45.703125 3.296875 40.5 1.140625 
Q 35.296875 -1 29.75 -1 
Q 21.84375 -1 15.890625 2.25 
Q 9.953125 5.5 6.59375 11.390625 
Q 3.25 17.296875 3.25 25.25 
Q 3.25 32.796875 6.296875 39.046875 
Q 9.34375 45.296875 15.09375 49 
Q 20.84375 52.703125 28.953125 52.703125 
Q 37.15625 52.703125 42.65625 49.265625 
Q 48.15625 45.84375 50.921875 39.875 
Q 53.703125 33.90625 53.703125 26.203125 
L 53.703125 21.953125 
z
M 20 31.75 
L 37.90625 31.75 
Q 37.90625 35.546875 35.65625 38.296875 
Q 33.40625 41.046875 28.953125 41.046875 
Q 24.90625 41.046875 22.421875 38.1875 
Q 19.953125 35.34375 20 31.75 
z
" id="PublicSans-ExtraBold-101"/>
      <path d="M 39.15625 40.046875 
L 27.796875 40.046875 
L 27.84375 14.546875 
Q 27.84375 12.25 28.875 11.625 
Q 29.90625 11 31.75 11 
L 39.25 11 
L 39.25 0.75 
Q 38.203125 0.25 36 -0.203125 
Q 33.796875 -0.65625 29.546875 -0.65625 
Q 22.09375 -0.65625 18.015625 1.21875 
Q 13.953125 3.09375 12.375 6.375 
Q 10.796875 9.65625 10.796875 13.796875 
L 10.796875 40.046875 
L 2.40625 40.046875 
L 2.40625 51.703125 
L 11.40625 51.703125 
L 15.75 67.546875 
L 27.796875 67.546875 
L 27.796875 51.796875 
L 39.15625 51.796875 
z
" id="PublicSans-ExtraBold-116"/>
      <path d="M 24.65625 -1 
Q 20.203125 -1 15.671875 0.921875 
Q 11.15625 2.84375 8.09375 6.546875 
Q 5.046875 10.25 5.046875 15.59375 
L 5.046875 51.703125 
L 22.09375 51.703125 
L 22.09375 17.90625 
Q 22.09375 14.953125 24.09375 13.046875 
Q 26.09375 11.15625 29.84375 11.15625 
Q 33.453125 11.15625 35.546875 13.03125 
Q 37.65625 14.90625 37.65625 18 
L 37.65625 51.703125 
L 54.546875 51.703125 
L 54.546875 0 
L 41.84375 0 
L 39.84375 10.453125 
Q 38.90625 5.59375 36.34375 3.125 
Q 33.796875 0.65625 30.625 -0.171875 
Q 27.453125 -1 24.65625 -1 
z
" id="PublicSans-ExtraBold-117"/>
      <path d="M 5.65625 0 
L 5.65625 51.703125 
L 22.046875 51.703125 
L 22.046875 38.453125 
Q 23.84375 44.5 28.046875 48.59375 
Q 32.25 52.703125 38.90625 52.703125 
Q 40.15625 52.703125 40.40625 52.546875 
L 40.40625 36.40625 
Q 40.15625 36.5 39.78125 36.546875 
Q 39.40625 36.59375 39 36.59375 
Q 32.5 37.25 28.953125 35.96875 
Q 25.40625 34.703125 24.03125 32.171875 
Q 22.65625 29.65625 22.65625 26.546875 
L 22.65625 0 
z
" id="PublicSans-ExtraBold-114"/>
      <path d="M 5.65625 0 
L 5.65625 51.703125 
L 22.453125 51.703125 
L 22.453125 44.453125 
Q 24.15625 47.09375 27.46875 49.5625 
Q 30.796875 52.046875 36.90625 52.046875 
Q 41.546875 52.046875 45.671875 50.25 
Q 49.796875 48.453125 52.390625 44.515625 
Q 55 40.59375 55 34.25 
L 55 0 
L 37.90625 0 
L 37.90625 32 
Q 37.90625 35.40625 35.703125 37.125 
Q 33.5 38.84375 30.65625 38.84375 
Q 27.75 38.84375 25.203125 37.21875 
Q 22.65625 35.59375 22.65625 32.40625 
L 22.65625 0 
z
" id="PublicSans-ExtraBold-110"/>
      <path id="PublicSans-ExtraBold-32"/>
      <path d="M 7.40625 0 
L 7.40625 72.296875 
L 35.046875 72.296875 
Q 42.953125 72.296875 49.296875 69.5 
Q 55.65625 66.703125 59.328125 61.328125 
Q 63 55.953125 63 48.203125 
Q 63 37.453125 56.015625 31.390625 
Q 49.046875 25.34375 37.25 25.34375 
L 24.5 25.34375 
L 24.5 0 
z
M 24.34375 38.25 
L 36.75 38.25 
Q 41.296875 38.25 44.265625 41.46875 
Q 47.25 44.703125 47.25 49.09375 
Q 47.25 53.65625 44.078125 56.578125 
Q 40.90625 59.5 36.59375 59.5 
L 24.34375 59.5 
z
" id="PublicSans-ExtraBold-80"/>
      <path d="M 28.59375 -1 
Q 20.75 -1 15 2.328125 
Q 9.25 5.65625 6.09375 11.59375 
Q 2.953125 17.546875 2.953125 25.546875 
Q 2.953125 33.65625 6.171875 39.78125 
Q 9.40625 45.90625 15.171875 49.296875 
Q 20.953125 52.703125 28.65625 52.703125 
Q 36.5 52.703125 42.25 49.265625 
Q 48 45.84375 51.09375 39.71875 
Q 54.203125 33.59375 54.203125 25.546875 
Q 54.203125 17.796875 51.125 11.796875 
Q 48.046875 5.796875 42.296875 2.390625 
Q 36.546875 -1 28.59375 -1 
z
M 28.65625 11.5 
Q 32.09375 11.5 34.0625 13.671875 
Q 36.046875 15.84375 36.84375 19.21875 
Q 37.65625 22.59375 37.65625 26.09375 
Q 37.65625 29.546875 36.90625 32.8125 
Q 36.15625 36.09375 34.203125 38.25 
Q 32.25 40.40625 28.65625 40.40625 
Q 25.15625 40.40625 23.171875 38.328125 
Q 21.203125 36.25 20.375 32.96875 
Q 19.546875 29.703125 19.546875 26.09375 
Q 19.546875 22.703125 20.3125 19.328125 
Q 21.09375 15.953125 23.0625 13.71875 
Q 25.046875 11.5 28.65625 11.5 
z
" id="PublicSans-ExtraBold-111"/>
      <path d="M 38.25 51.703125 
L 38.25 40.046875 
L 28.09375 40.046875 
L 28.09375 0 
L 11.046875 0 
L 11.046875 40.046875 
L 2.09375 40.046875 
L 2.09375 51.703125 
L 11.046875 51.703125 
L 11.046875 58.84375 
Q 11.046875 65.203125 14.96875 68.75 
Q 18.90625 72.296875 25.84375 72.296875 
L 38.65625 72.296875 
L 38.75 61.15625 
L 32.34375 61.15625 
Q 29.75 61.15625 28.75 59.921875 
Q 27.75 58.703125 27.75 55.703125 
L 27.75 51.703125 
z
" id="PublicSans-ExtraBold-102"/>
      <path d="M 22.546875 72.296875 
L 22.546875 57.5 
L 6.203125 57.5 
L 6.203125 72.296875 
z
M 22.5 51.703125 
L 22.5 0 
L 6.25 0 
L 6.25 51.703125 
z
" id="PublicSans-ExtraBold-105"/>
      <path d="M 23.703125 -1 
Q 17.25 -1 13.578125 0.421875 
Q 9.90625 1.84375 8.203125 4.1875 
Q 6.5 6.546875 6.078125 9.390625 
Q 5.65625 12.25 5.65625 15.046875 
L 5.65625 74.296875 
L 22.296875 74.296875 
L 22.296875 17.25 
Q 22.296875 14.90625 23.390625 13.171875 
Q 24.5 11.453125 28.15625 11 
L 30.40625 10.84375 
L 30.40625 0.40625 
Q 28.796875 -0.203125 27.0625 -0.59375 
Q 25.34375 -1 23.703125 -1 
z
" id="PublicSans-ExtraBold-108"/>
      <path d="M 27 -1 
Q 21.59375 -1 16.4375 0.796875 
Q 11.296875 2.59375 7.640625 6.546875 
Q 4 10.5 2.953125 16.84375 
L 17.546875 16.84375 
Q 18.203125 14.203125 19.875 12.828125 
Q 21.546875 11.453125 23.5 10.921875 
Q 25.453125 10.40625 26.90625 10.40625 
Q 30.59375 10.40625 32.890625 11.453125 
Q 35.203125 12.5 35.203125 14.65625 
Q 35.203125 16.40625 33.765625 17.453125 
Q 32.34375 18.5 28.84375 19.09375 
L 20.453125 20.65625 
Q 13.296875 22 8.9375 25.625 
Q 4.59375 29.25 4.546875 35.90625 
Q 4.5 40.65625 7.09375 44.453125 
Q 9.703125 48.25 14.75 50.46875 
Q 19.796875 52.703125 27.15625 52.703125 
Q 37.203125 52.703125 43.140625 48.265625 
Q 49.09375 43.84375 49.15625 36.15625 
L 35.15625 36.15625 
Q 34.59375 38.796875 32.34375 40.171875 
Q 30.09375 41.546875 26.90625 41.546875 
Q 23.703125 41.546875 21.515625 40.46875 
Q 19.34375 39.40625 19.34375 37.25 
Q 19.34375 35.59375 21.25 34.5625 
Q 23.15625 33.546875 27.296875 32.796875 
L 34.84375 31.25 
Q 41.046875 29.75 44.21875 26.890625 
Q 47.40625 24.046875 48.53125 20.9375 
Q 49.65625 17.84375 49.65625 15.59375 
Q 49.65625 10.25 46.703125 6.546875 
Q 43.75 2.84375 38.625 0.921875 
Q 33.5 -1 27 -1 
z
" id="PublicSans-ExtraBold-115"/>
      <path d="M 37.90625 -1 
Q 27.75 -1 20.265625 3.59375 
Q 12.796875 8.203125 8.640625 16.5 
Q 4.5 24.796875 4.5 35.90625 
Q 4.5 47.296875 8.84375 55.6875 
Q 13.203125 64.09375 20.953125 68.6875 
Q 28.703125 73.296875 38.90625 73.296875 
Q 45.75 73.296875 51.328125 71.140625 
Q 56.90625 69 60.90625 65.34375 
Q 64.90625 61.703125 67.125 57.09375 
Q 69.34375 52.5 69.5 47.546875 
L 51.65625 47.546875 
Q 50.65625 52.34375 47.328125 55.71875 
Q 44 59.09375 38.5 59.09375 
Q 34.25 59.09375 30.765625 56.890625 
Q 27.296875 54.703125 25.1875 49.71875 
Q 23.09375 44.75 23.09375 36.40625 
Q 23.09375 29.5 24.515625 25.09375 
Q 25.953125 20.703125 28.296875 18.25 
Q 30.65625 15.796875 33.5 14.8125 
Q 36.34375 13.84375 39.203125 13.84375 
Q 42.703125 13.84375 45.328125 15.265625 
Q 47.953125 16.703125 49.515625 18.828125 
Q 51.09375 20.953125 51.546875 23.046875 
L 52.296875 26.546875 
L 38.5 26.546875 
L 38.5 38.15625 
L 70.203125 38 
L 70.203125 0 
L 58.796875 0 
L 58.796875 8.703125 
Q 56.953125 6.546875 54.34375 4.296875 
Q 51.75 2.046875 47.765625 0.515625 
Q 43.796875 -1 37.90625 -1 
z
" id="PublicSans-ExtraBold-71"/>
      <path d="M 20.90625 -1 
Q 16 -1 12 0.875 
Q 8 2.75 5.625 6.34375 
Q 3.25 9.953125 3.25 15.15625 
Q 3.25 23.59375 9.765625 28.140625 
Q 16.296875 32.703125 30.203125 32.75 
L 35.453125 32.796875 
L 35.453125 35.453125 
Q 35.453125 41.59375 28.296875 41.5 
Q 25.703125 41.40625 23.078125 40.21875 
Q 20.453125 39.046875 19.296875 35.953125 
L 5.34375 35.953125 
Q 5.65625 41.796875 8.828125 45.5 
Q 12 49.203125 17.265625 50.953125 
Q 22.546875 52.703125 29.09375 52.703125 
Q 37.546875 52.703125 42.5 50.703125 
Q 47.453125 48.703125 49.59375 45.046875 
Q 51.75 41.40625 51.75 36.5 
L 51.75 0 
L 37.59375 0 
L 36.15625 8.546875 
Q 33.65625 3.09375 29.953125 1.046875 
Q 26.25 -1 20.90625 -1 
z
M 26.796875 9.953125 
Q 30.203125 9.953125 32.765625 12.203125 
Q 35.34375 14.453125 35.453125 17.40625 
L 35.453125 24.453125 
L 31.25 24.40625 
Q 28.65625 24.40625 25.875 23.703125 
Q 23.09375 23 21.1875 21.375 
Q 19.296875 19.75 19.296875 16.90625 
Q 19.296875 13.59375 21.515625 11.765625 
Q 23.75 9.953125 26.796875 9.953125 
z
" id="PublicSans-ExtraBold-97"/>
      <path d="M 5.65625 0 
L 5.65625 51.703125 
L 22.34375 51.703125 
L 22.34375 44.453125 
Q 24.796875 47.90625 28.875 50.296875 
Q 32.953125 52.703125 39 52.703125 
Q 42.90625 52.703125 46.921875 50.59375 
Q 50.953125 48.5 53.40625 44.5 
Q 55.90625 47.90625 59.953125 50.296875 
Q 64 52.703125 69 52.703125 
Q 72.90625 52.703125 76.796875 50.875 
Q 80.703125 49.046875 83.296875 45 
Q 85.90625 40.953125 85.90625 34.25 
L 85.90625 0 
L 68.84375 0 
L 68.84375 32 
Q 68.84375 35.65625 66.546875 37.296875 
Q 64.25 38.953125 61.59375 38.953125 
Q 59.046875 38.953125 56.625 37.34375 
Q 54.203125 35.75 54.203125 32.40625 
L 54.203125 0 
L 37.203125 0 
L 37.203125 32.65625 
Q 37.203125 35.703125 34.890625 37.328125 
Q 32.59375 38.953125 30.046875 38.953125 
Q 27.453125 38.953125 25.046875 37.296875 
Q 22.65625 35.65625 22.65625 32.40625 
L 22.65625 0 
z
" id="PublicSans-ExtraBold-109"/>
      <path d="M 35.796875 -1 
Q 30.296875 -1 24.96875 0.375 
Q 19.65625 1.75 15.21875 4.515625 
Q 10.796875 7.296875 7.96875 11.5 
Q 5.15625 15.703125 4.59375 21.34375 
L 22 21.34375 
Q 22.953125 16.953125 26.59375 14.578125 
Q 30.25 12.203125 35.703125 12.203125 
Q 39.15625 12.203125 42.15625 12.96875 
Q 45.15625 13.75 47 15.46875 
Q 48.84375 17.203125 48.84375 20.046875 
Q 48.84375 22.5 47.171875 23.96875 
Q 45.5 25.453125 42.75 26.328125 
Q 40 27.203125 36.796875 27.796875 
L 25 30.046875 
Q 16.75 31.5 11.796875 36.640625 
Q 6.84375 41.796875 6.703125 50.59375 
Q 6.59375 57.65625 10.4375 62.703125 
Q 14.296875 67.75 20.875 70.46875 
Q 27.453125 73.203125 35.453125 73.203125 
Q 45.046875 73.203125 51.671875 70.265625 
Q 58.296875 67.34375 61.75 62.296875 
Q 65.203125 57.25 65.296875 50.84375 
L 48.34375 50.84375 
Q 47.84375 55.796875 44.46875 57.84375 
Q 41.09375 59.90625 35.796875 59.90625 
Q 30.046875 59.90625 27.296875 57.71875 
Q 24.546875 55.546875 24.546875 52.65625 
Q 24.546875 49.796875 26.375 48.0625 
Q 28.203125 46.34375 33.40625 45.296875 
L 45.15625 43.09375 
Q 52.296875 41.796875 56.5 39.09375 
Q 60.703125 36.40625 62.703125 33.03125 
Q 64.703125 29.65625 65.296875 26.21875 
Q 65.90625 22.796875 65.90625 20.046875 
Q 65.90625 14.09375 62.03125 9.3125 
Q 58.15625 4.546875 51.375 1.765625 
Q 44.59375 -1 35.796875 -1 
z
" id="PublicSans-ExtraBold-83"/>
      <path d="M 5.65625 -16.09375 
L 5.65625 51.703125 
L 22.703125 51.703125 
L 22.75 45 
Q 25.40625 48.75 29.65625 50.71875 
Q 33.90625 52.703125 38.34375 52.703125 
Q 43.953125 52.703125 48.34375 49.84375 
Q 52.75 47 55.296875 41.09375 
Q 57.84375 35.203125 57.84375 26.15625 
Q 57.84375 16.5 54.9375 10.515625 
Q 52.046875 4.546875 47.21875 1.765625 
Q 42.40625 -1 36.59375 -1 
Q 32.5 -1 28.75 1.09375 
Q 25 3.203125 22.65625 7.046875 
L 22.65625 -16.09375 
z
M 32.296875 11.296875 
Q 36.25 11.296875 39.125 14.796875 
Q 42 18.296875 42 26.046875 
Q 42 32.953125 39.21875 36.75 
Q 36.453125 40.546875 32.296875 40.546875 
Q 27.296875 40.546875 24.96875 36.3125 
Q 22.65625 32.09375 22.65625 26.046875 
Q 22.65625 22.296875 23.671875 18.921875 
Q 24.703125 15.546875 26.828125 13.421875 
Q 28.953125 11.296875 32.296875 11.296875 
z
" id="PublicSans-ExtraBold-112"/>
      <path d="M 25.09375 -1 
Q 14.5 -1 8.71875 6.296875 
Q 2.953125 13.59375 2.953125 26.15625 
Q 2.953125 38.34375 8.25 45.515625 
Q 13.546875 52.703125 23.296875 52.703125 
Q 28 52.703125 32.046875 50.796875 
Q 36.09375 48.90625 38.25 45.25 
L 38.25 74.296875 
L 55.296875 74.296875 
L 55.296875 0 
L 43.15625 0 
L 41.15625 10.59375 
Q 39.59375 5.75 35.8125 2.375 
Q 32.046875 -1 25.09375 -1 
z
M 29 11.046875 
Q 33.453125 11.046875 35.84375 14.4375 
Q 38.25 17.84375 38.25 26.25 
Q 38.203125 33.703125 35.828125 37.125 
Q 33.453125 40.546875 29.046875 40.546875 
Q 25 40.546875 22.25 37.3125 
Q 19.5 34.09375 19.5 26.25 
Q 19.5 18.15625 22.140625 14.59375 
Q 24.796875 11.046875 29 11.046875 
z
" id="PublicSans-ExtraBold-100"/>
      <path d="M 2.15625 0 
L 27.84375 72.296875 
L 45.5 72.296875 
L 71.25 0 
L 54.34375 0 
L 49 15.40625 
L 24.59375 15.40625 
L 19.15625 0 
z
M 28.296875 30.046875 
L 45.09375 30.046875 
L 36.75 55.953125 
z
" id="PublicSans-ExtraBold-65"/>
      <path d="M 7.40625 0 
L 7.40625 72.296875 
L 32.5 72.296875 
L 46.59375 24.5 
L 60.84375 72.296875 
L 85.796875 72.296875 
L 85.796875 0 
L 68.703125 0 
L 68.703125 53.84375 
L 52.953125 0 
L 40.25 0 
L 24.5 53.703125 
L 24.5 0 
z
" id="PublicSans-ExtraBold-77"/>
      <path d="M 38.203125 73.296875 
Q 46.546875 73.296875 53.140625 69.96875 
Q 59.75 66.65625 63.796875 60.828125 
Q 67.84375 55 68.65625 47.546875 
L 50.796875 47.546875 
Q 49.90625 52.90625 46.578125 56.203125 
Q 43.25 59.5 37.65625 59.5 
Q 33.296875 59.5 30.046875 57.296875 
Q 26.796875 55.09375 25.015625 50.09375 
Q 23.25 45.09375 23.25 36.703125 
Q 23.25 23.90625 27.171875 18.34375 
Q 31.09375 12.796875 37.65625 12.796875 
Q 43.25 12.796875 46.578125 16.71875 
Q 49.90625 20.65625 50.796875 26 
L 68.65625 26 
Q 67.953125 20.59375 66.125 15.75 
Q 64.296875 10.90625 60.84375 7.125 
Q 57.40625 3.34375 51.875 1.171875 
Q 46.34375 -1 38.203125 -1 
Q 27.90625 -1 20.34375 3.828125 
Q 12.796875 8.65625 8.640625 17.203125 
Q 4.5 25.75 4.5 36.953125 
Q 4.5 48.09375 8.59375 56.265625 
Q 12.703125 64.453125 20.265625 68.875 
Q 27.84375 73.296875 38.203125 73.296875 
z
" id="PublicSans-ExtraBold-67"/>
     </defs>
     <use xlink:href="#PublicSans-ExtraBold-82"/>
     <use x="70.450012" xlink:href="#PublicSans-ExtraBold-101"/>
     <use x="127.600021" xlink:href="#PublicSans-ExtraBold-116"/>
     <use x="170.800018" xlink:href="#PublicSans-ExtraBold-117"/>
     <use x="230.400024" xlink:href="#PublicSans-ExtraBold-114"/>
     <use x="271.950027" xlink:href="#PublicSans-ExtraBold-110"/>
     <use x="331.950043" xlink:href="#PublicSans-ExtraBold-32"/>
     <use x="352.350037" xlink:href="#PublicSans-ExtraBold-80"/>
     <use x="418.300049" xlink:href="#PublicSans-ExtraBold-114"/>
     <use x="459.850052" xlink:href="#PublicSans-ExtraBold-111"/>
     <use x="517.050064" xlink:href="#PublicSans-ExtraBold-102"/>
     <use x="556.950073" xlink:href="#PublicSans-ExtraBold-105"/>
     <use x="585.700073" xlink:href="#PublicSans-ExtraBold-108"/>
     <use x="619.40007" xlink:href="#PublicSans-ExtraBold-101"/>
     <use x="676.550079" xlink:href="#PublicSans-ExtraBold-115"/>
     <use x="729.550079" xlink:href="#PublicSans-ExtraBold-32"/>
     <use x="749.950073" xlink:href="#PublicSans-ExtraBold-111"/>
     <use x="807.150085" xlink:href="#PublicSans-ExtraBold-102"/>
     <use x="847.050095" xlink:href="#PublicSans-ExtraBold-32"/>
     <use x="867.450089" xlink:href="#PublicSans-ExtraBold-71"/>
     <use x="944.500107" xlink:href="#PublicSans-ExtraBold-97"/>
     <use x="1002.30011" xlink:href="#PublicSans-ExtraBold-109"/>
     <use x="1093.250122" xlink:href="#PublicSans-ExtraBold-101"/>
     <use x="1150.400131" xlink:href="#PublicSans-ExtraBold-83"/>
     <use x="1220.700134" xlink:href="#PublicSans-ExtraBold-116"/>
     <use x="1263.900131" xlink:href="#PublicSans-ExtraBold-111"/>
     <use x="1321.100143" xlink:href="#PublicSans-ExtraBold-112"/>
     <use x="1381.900146" xlink:href="#PublicSans-ExtraBold-32"/>
     <use x="1402.30014" xlink:href="#PublicSans-ExtraBold-97"/>
     <use x="1460.100143" xlink:href="#PublicSans-ExtraBold-110"/>
     <use x="1520.100159" xlink:href="#PublicSans-ExtraBold-100"/>
     <use x="1581.050171" xlink:href="#PublicSans-ExtraBold-32"/>
     <use x="1601.450165" xlink:href="#PublicSans-ExtraBold-65"/>
     <use x="1674.800171" xlink:href="#PublicSans-ExtraBold-77"/>
     <use x="1768.050186" xlink:href="#PublicSans-ExtraBold-67"/>
    </g>
    <!--  -->
    <g style="fill:#002f6c;" transform="translate(376.704375 109.135)scale(0.32 -0.32)"/>
   </g>
   <g id="line2d_15">
    <path clip-path="url(#p230ae7d43f)" d="M 154.322557 581.916529 
L 157.192 582.136818 
L 160.061442 581.916529 
L 162.930885 581.622811 
L 165.800328 580.961942 
L 174.408657 580.521365 
L 177.278099 579.860498 
L 180.147542 580.668224 
L 183.016985 580.668224 
L 185.886428 579.56678 
L 197.364199 574.206412 
L 200.233642 574.867279 
L 203.103085 574.793849 
L 205.972527 570.902076 
L 214.580856 564.219973 
L 217.450299 560.25477 
L 220.319742 450.550814 
L 223.189184 533.306073 
L 226.058627 499.308125 
L 234.666956 499.014406 
L 237.536398 539.253877 
L 240.405841 530.809462 
L 243.275284 544.614245 
L 246.144727 546.523418 
L 254.753055 551.296349 
L 257.622498 556.289567 
L 260.491941 554.086675 
L 263.361384 555.481839 
L 266.230827 555.628699 
L 277.708598 555.188121 
L 280.578041 555.922417 
L 283.447484 556.216136 
L 286.316926 554.820974 
L 294.925255 548.579448 
L 297.794698 540.135036 
L 300.66414 529.928306 
L 303.533583 535.802683 
L 306.403026 537.858713 
L 315.011354 529.267438 
L 317.880797 531.10318 
L 320.75024 533.673222 
L 323.619683 537.711857 
L 326.489126 537.564994 
L 335.097454 528.459714 
L 337.966897 519.574721 
L 340.83634 524.347648 
L 343.705783 521.190176 
L 346.575225 514.728363 
L 355.183554 493.580611 
L 358.052997 501.070435 
L 360.92244 497.105232 
L 363.791882 493.874329 
L 366.661325 494.388335 
L 375.269654 504.962214 
L 378.139096 518.399847 
L 381.008539 530.442312 
L 383.877982 516.343818 
L 386.747425 521.483895 
L 395.355753 520.676164 
L 398.225196 520.676164 
L 401.094639 521.704182 
L 403.964082 527.945708 
L 415.441853 518.766997 
L 418.311296 521.777613 
L 421.180739 524.347648 
L 424.050181 524.788229 
L 426.919624 527.505127 
L 435.527953 533.379504 
L 438.397396 531.764049 
L 441.266838 528.019133 
L 444.136281 523.980505 
L 447.005724 528.165996 
L 455.614052 525.742816 
L 458.483495 528.533145 
L 461.352938 524.861661 
L 464.222381 523.319637 
L 467.091824 522.071332 
L 475.700152 512.231752 
L 478.569595 512.52547 
L 481.439038 517.004679 
L 484.308481 521.777613 
L 487.177923 523.025919 
L 495.786252 525.375666 
L 498.655695 527.725414 
L 501.525137 529.340869 
L 504.39458 530.589175 
L 507.264023 526.844259 
L 515.872352 525.155379 
L 518.741794 522.879056 
L 521.611237 520.896458 
L 524.48068 502.906178 
L 527.350123 501.364161 
L 535.958451 494.241479 
L 538.827894 493.654042 
L 541.697337 503.860765 
L 544.56678 504.521633 
L 547.436223 507.97283 
L 556.044551 496.224077 
L 558.913994 476.177774 
L 561.783437 453.047424 
L 564.652879 401.940352 
L 567.522322 404.877537 
L 579.000093 361.407159 
L 581.869536 137.373182 
L 584.738979 219.687859 
L 587.608422 244.874246 
L 596.21675 192.812593 
L 599.086193 192.445451 
" style="fill:none;stroke:#ff0000;stroke-opacity:0.5;stroke-width:4;"/>
   </g>
   <g id="text_24">
    <!-- GME -->
    <g style="opacity:0.7;" transform="translate(606.678849 357.065456)scale(0.14 -0.14)">
     <defs>
      <path d="M 7.40625 0 
L 7.40625 72.296875 
L 58.953125 72.296875 
L 58.84375 58.09375 
L 24.546875 58.09375 
L 24.546875 43.34375 
L 53.796875 43.34375 
L 53.796875 29.453125 
L 24.453125 29.453125 
L 24.453125 14.34375 
L 59.25 14.296875 
L 59.25 0 
z
" id="PublicSans-ExtraBold-69"/>
     </defs>
     <use xlink:href="#PublicSans-ExtraBold-71"/>
     <use x="77.050018" xlink:href="#PublicSans-ExtraBold-77"/>
     <use x="170.300034" xlink:href="#PublicSans-ExtraBold-69"/>
    </g>
   </g>
   <g id="text_25">
    <!-- AMC -->
    <g style="fill:#ff0000;opacity:0.7;" transform="translate(606.303693 206.519669)scale(0.14 -0.14)">
     <use xlink:href="#PublicSans-ExtraBold-65"/>
     <use x="73.350006" xlink:href="#PublicSans-ExtraBold-77"/>
     <use x="166.600021" xlink:href="#PublicSans-ExtraBold-67"/>
    </g>
   </g>
  </g>
 </g>
 <defs>
  <clipPath id="p230ae7d43f">
   <rect height="489.24" width="489.24" x="132.084375" y="115.135"/>
  </clipPath>
 </defs>
</svg>
